<svg width="480" height="236" viewBox="0 0 480 236" fill="none" xmlns="http://www.w3.org/2000/svg">
<path d="M239.848 235.5C176.996 235.5 117.89 226.166 73.4126 209.251C28.5092 192.165 3.77473 169.247 3.77473 144.722C3.77473 120.198 28.5092 97.2796 73.4126 80.1881C117.89 63.2637 176.996 53.9442 239.848 53.9442C302.699 53.9442 361.805 63.2784 406.278 80.1881C451.186 97.2796 475.916 120.198 475.916 144.722C475.916 169.247 451.186 192.165 406.278 209.251C361.805 226.181 302.694 235.5 239.848 235.5ZM239.848 56.8083C177.275 56.8083 118.467 66.0738 74.2548 82.9C30.4729 99.5591 6.359 121.514 6.359 144.722C6.359 167.93 30.4729 189.885 74.2548 206.544C118.467 223.37 177.275 232.636 239.848 232.636C302.42 232.636 361.228 223.37 405.44 206.544C449.218 189.885 473.332 167.925 473.332 144.722C473.332 121.519 449.218 99.5591 405.44 82.9C361.228 66.0738 302.42 56.8083 239.848 56.8083Z" fill="#C3937C"/>
<path d="M53.9663 86.3144C39.9279 89.9547 29.05 100.507 20.4506 112.927C15.5347 120.031 11.3103 127.699 7.35192 135.496C3.53093 143.022 -0.946108 151.639 0.175367 160.63C2.42718 178.645 21.7228 181.995 34.7505 183.97C45.0344 185.527 54.0638 188.834 63.009 194.749C70.8239 199.922 78.1423 205.955 85.997 211.059C101.574 221.179 118.671 228.745 136.494 232.213C154.394 235.697 171.544 233.884 189.177 229.659C199.563 227.168 209.874 225.051 220.521 224.584C230.893 224.127 241.279 224.756 251.638 225.37C272.446 226.601 293.251 227.841 314.055 229.089C345.12 230.936 381.171 235.274 408.61 215.333C422.475 205.247 430.121 188.225 443.38 177.505C453.836 169.05 470.335 167.507 477.312 154.302C485.061 139.618 474.688 123.465 463.571 115.609C455.627 109.999 446.638 106.186 438.069 101.942L409.478 87.7685C400.125 83.1309 390.799 78.4343 381.406 73.8753C372.829 69.724 364.074 66.0492 354.752 64.6589C335.248 61.7457 315.376 66.1328 295.766 64.9783C275.322 63.7894 255.14 59.756 234.905 56.5382C225.543 55.0643 216.15 53.7232 206.713 52.9273C197.032 52.1118 186.85 51.3012 177.196 52.8045C168.685 54.1309 163.046 59.4514 156.331 64.8456C147.723 71.7628 138.325 72.5439 128.046 71.2961C118.835 70.1809 109.845 68.6825 100.563 69.2671C83.2948 70.3355 66.5688 76.3313 52.007 86.673C51.413 87.0906 51.9627 88.1468 52.5611 87.7243C67.8374 76.9296 85.4675 70.9246 103.577 70.3479C119.092 69.9008 136.88 77.7465 151.504 69.6503C159.039 65.4843 164.447 57.7958 172.692 55.084C181.761 52.097 192.444 53.1877 201.775 53.7772C221.106 55.0054 240.207 58.6899 259.343 61.7948C277.171 64.6786 295.15 67.0564 313.204 66.4324C332.5 65.7594 351.383 62.797 370.045 70.1023C388.472 77.3191 406.203 87.459 424.035 96.2971C432.653 100.571 441.283 104.806 449.887 109.114C457.808 113.084 466.026 117.466 471.895 124.786C477.906 132.298 481.275 143.808 476.674 153.152C473.23 160.143 466.434 163.793 460.122 166.829C453.81 169.866 447.316 172.617 441.775 177.353C435.959 182.319 431.265 188.652 426.549 194.813C416.039 208.568 404.505 218.841 388.702 224.073C373.791 229.01 357.997 229.708 342.536 229.344C305.017 228.45 267.574 223.611 230.047 223.248C221.128 223.159 212.21 223.655 203.402 225.277C194.217 226.967 185.228 229.659 176.034 231.359C157.967 234.694 139.575 232.911 122.039 227.212C105.137 221.72 89.6452 212.705 75.0527 201.916C68.1598 196.827 61.2625 191.6 53.6161 187.969C45.5087 184.122 37.0289 183.272 28.4117 181.808C19.9896 180.374 11.1242 177.751 5.33505 170.264C-2.369 160.271 2.40502 147.984 7.38296 137.997C14.4975 123.72 22.5783 109.213 34.0812 98.7485C39.9414 93.3241 46.8552 89.4769 54.281 87.5082C54.9681 87.3313 54.6755 86.1572 53.9884 86.334L53.9663 86.3144Z" fill="#C3937C"/>
<path d="M175.028 55.1676C221.208 35.1235 271.336 28.9052 320.372 37.1378C321.338 37.2999 321.755 35.6639 320.78 35.492C271.484 27.1818 221.082 33.4018 174.642 53.5267C173.729 53.9247 174.128 55.5704 175.05 55.1676H175.028Z" fill="#C3937C"/>
<path d="M212.595 42.1832C231.213 26.6294 254.444 21.6675 276.869 17.1281C277.845 16.9316 277.432 15.2907 276.462 15.4873C253.895 20.0463 230.534 25.072 211.802 40.7143C211.022 41.3677 211.802 42.8464 212.577 42.1881L212.595 42.1832Z" fill="#C3937C"/>
<path d="M226.27 33.0405C245.331 13.8218 272.605 6.54596 297.49 13.9888C297.687 14.0487 297.896 14.0198 298.073 13.9083C298.25 13.7968 298.38 13.6119 298.434 13.3943C298.488 13.1768 298.462 12.9443 298.362 12.748C298.261 12.5518 298.094 12.4079 297.898 12.3479C272.472 4.73807 244.666 12.2055 225.202 31.8368C224.47 32.5737 225.556 33.8019 226.288 33.0405H226.27Z" fill="#C3937C"/>
<path d="M229.572 31.7091C253.389 31.1147 277.889 29.8718 298.2 14.4015C299.006 13.7825 298.239 12.3038 297.424 12.9277C277.335 28.2456 253.141 29.4149 229.572 30.0044C228.584 30.0044 228.584 31.7337 229.572 31.7091Z" fill="#C3937C"/>
<path d="M240.042 26.1626C244.611 22.0761 249.431 18.3465 254.466 15.0009C255.318 14.4408 254.542 12.967 253.691 13.527C248.545 16.9512 243.622 20.7695 238.956 24.9541C238.185 25.6419 239.28 26.8406 240.042 26.1577V26.1626Z" fill="#C3937C"/>
<path d="M250.942 23.1068C257.312 17.9927 264.573 14.6422 271.967 11.8075C272.898 11.4538 272.494 9.80802 271.559 10.1666C264.023 13.0553 256.638 16.4501 250.167 21.6428C249.373 22.2815 250.136 23.7602 250.942 23.1167V23.1068Z" fill="#C3937C"/>
<path d="M264.71 19.776C272.199 16.035 280.188 13.6753 288.363 12.7901C289.339 12.682 289.347 10.9773 288.363 11.0853C279.921 12.003 271.669 14.4406 263.935 18.3022C263.048 18.7492 263.811 20.2182 264.71 19.776Z" fill="#C3937C"/>
<path d="M247.516 25.4847C253.22 27.9382 259.353 28.9226 265.451 28.3636C266.43 28.2752 266.439 26.5704 265.451 26.6638C259.492 27.2175 253.499 26.2529 247.928 23.8439C247.011 23.4361 246.598 25.0819 247.516 25.4847Z" fill="#C3937C"/>
<path d="M259.848 21.9868C267.512 23.9519 275.704 24.7723 283.439 22.8318C284.401 22.5911 283.993 20.9453 283.026 21.186C275.579 23.0578 267.632 22.257 260.26 20.346C259.298 20.0954 258.886 21.7363 259.848 21.9868Z" fill="#C3937C"/>
<path d="M271.058 18.2433C278.514 18.4448 286.072 18.5332 293.483 17.5359C294.454 17.4032 294.467 15.6985 293.483 15.8312C286.072 16.8137 278.514 16.7449 271.058 16.5435C270.07 16.514 270.07 18.2188 271.058 18.2433Z" fill="#C3937C"/>
<path d="M292.402 33.3549C312.102 24.8955 333.062 20.6158 354.189 20.739C354.383 20.7227 354.564 20.6258 354.696 20.4677C354.829 20.3097 354.902 20.1021 354.902 19.8866C354.902 19.6711 354.829 19.4636 354.696 19.3055C354.564 19.1475 354.383 19.0506 354.189 19.0343C332.927 18.9066 311.832 23.2078 292.003 31.7141C291.089 32.1071 291.488 33.7529 292.41 33.3549H292.402Z" fill="#C3937C"/>
<path d="M302.552 28.904C321.613 11.2475 349.433 8.84028 371.375 21.7559C372.261 22.2472 371.818 20.1838 370.931 19.668C359.953 13.163 347.468 10.4511 335.087 11.8819C322.705 13.3126 310.994 18.8204 301.462 27.6954C300.7 28.4029 301.794 29.6016 302.548 28.904H302.552Z" fill="#C3937C"/>
<path d="M303.342 28.7516C315.708 30.431 328.191 30.7962 340.621 29.8423C350.674 29.0513 363.392 28.8057 372.022 22.4142C372.842 21.8099 372.075 20.3361 371.246 20.9404C366.561 24.4088 361.051 25.3618 355.603 26.2854C349.513 27.3106 343.39 28.0049 337.234 28.3684C325.923 29.0153 314.583 28.5715 303.342 27.042C302.362 26.9094 302.366 28.6141 303.342 28.7467V28.7516Z" fill="#C3937C"/>
<path d="M313.967 25.2488C320.554 19.5599 328.187 15.7918 336.259 13.527C337.216 13.2568 336.809 11.611 335.851 11.8812C327.509 14.2295 319.681 18.1696 312.881 24.0452C312.101 24.7183 313.195 25.917 313.967 25.2488Z" fill="#C3937C"/>
<path d="M334.69 21.8983C341.261 17.4189 348.905 15.2584 356.609 15.7033C357.598 15.7574 357.593 14.0526 356.609 14.0035C348.633 13.5613 340.722 15.8012 333.914 20.4294C333.067 20.9993 333.839 22.4731 334.69 21.9032V21.8983Z" fill="#C3937C"/>
<path d="M322.819 23.667C327.553 25.1408 332.061 27.1698 336.946 28.0639C341.709 28.901 346.551 29.0447 351.348 28.4913C352.323 28.3881 352.332 26.6834 351.348 26.7866C346.162 27.3912 340.925 27.1645 335.798 26.1135C331.476 25.1899 327.442 23.3428 323.227 22.0212C323.034 21.9759 322.833 22.0138 322.665 22.1271C322.497 22.2405 322.375 22.4207 322.322 22.631C322.27 22.8412 322.293 23.0656 322.385 23.2582C322.477 23.4508 322.632 23.597 322.819 23.667Z" fill="#C3937C"/>
<path d="M338.138 21.2892C347.106 24.6053 356.707 26.5361 366.175 25.6665C367.155 25.5732 367.164 23.8684 366.175 23.9618C356.827 24.8215 347.403 22.9203 338.546 19.6484C337.606 19.2996 337.216 20.9453 338.138 21.2892Z" fill="#C3937C"/>
<path d="M201.549 12.8736C206.185 19.8596 207.014 28.9825 202.786 36.4941C198.796 43.5538 191.052 46.7667 184.434 49.8617C183.548 50.2793 183.929 51.93 184.842 51.5026C192.311 48.0145 200.8 44.4479 204.789 36.0618C208.53 28.226 207.56 19.0637 202.879 12.0139C202.298 11.1443 200.964 11.9893 201.549 12.8736Z" fill="#C3937C"/>
<path d="M202.462 13.473C201.097 13.4435 199.723 13.4337 198.357 13.3748C197.617 13.3807 196.876 13.3348 196.141 13.2372C195.825 11.8944 196.12 11.3441 197.027 11.5865C197.145 11.5847 197.261 11.5534 197.366 11.4947C197.471 11.4361 197.562 11.3518 197.634 11.2482C197.705 11.1445 197.754 11.0243 197.777 10.8965C197.801 10.7687 197.797 10.6368 197.768 10.5106C197.626 9.84247 196.73 7.20434 197.058 6.73271C198.003 5.38171 198.987 7.26328 199.324 8.03949C199.66 8.81571 200.507 8.44727 200.729 7.83808C201.172 6.60007 202.994 4.81183 203.539 6.66885C203.473 6.45269 203.477 8.63395 203.446 8.08372C203.449 8.30879 203.532 8.52349 203.676 8.68219C203.82 8.8409 204.014 8.93109 204.217 8.93362C204.474 8.93362 206.669 8.57499 206.771 8.78132C207.555 10.4124 203.473 11.8076 202.755 11.842C201.77 11.8911 201.762 13.5958 202.755 13.5467C204.971 13.4386 207.777 11.9353 208.251 9.2333C208.743 6.4183 205.862 7.10607 204.217 7.22889L204.984 8.08372C204.887 6.07932 205.813 3.66224 203.047 3.44116C200.906 3.25939 199.913 5.51926 199.244 7.37137L200.649 7.16502C199.953 5.55855 198.521 3.40677 196.691 4.57601C194.554 5.94175 195.871 8.99749 196.287 10.9626L197.027 9.88178C195.383 9.88178 192.945 10.658 193.761 13.0849C194.811 16.2242 200.361 15.1286 202.475 15.1777C203.468 15.2023 203.468 13.4976 202.475 13.473H202.462Z" fill="#C3937C"/>
<path d="M203.792 10.9331C202.617 9.55266 200.636 8.67819 199.097 9.90637C197.856 10.8889 197.44 13.026 198.614 14.2738C199.789 15.5216 202.457 15.6887 203.934 15.163C205.41 14.6373 206.394 12.7066 205.512 11.1247C204.993 10.1913 203.663 11.0461 204.182 11.9845C205.321 14.0233 201.021 13.7089 200.192 13.365C199.168 12.9326 199.279 11.5178 200.285 11.1051C201.172 10.7366 202.121 11.4637 202.697 12.1368C203.38 12.9375 204.47 11.729 203.783 10.9331H203.792Z" fill="#C3937C"/>
<path d="M240.175 36.5285C256.899 41.989 274.304 44.4405 291.728 43.7896C292.712 43.7552 292.716 42.0505 291.728 42.0849C274.442 42.7387 257.174 40.312 240.583 34.8975C239.63 34.588 239.222 36.2288 240.171 36.5383L240.175 36.5285Z" fill="#C3937C"/>
<path d="M255.654 40.4981C274.856 35.339 295.07 37.556 312.987 46.7864C313.874 47.2433 314.658 45.7744 313.763 45.3126C295.483 35.8732 274.852 33.5953 255.251 38.8523C254.289 39.1127 254.697 40.7535 255.659 40.4981H255.654Z" fill="#C3937C"/>
<path d="M255.535 41.2252C272.88 53.5611 293.838 52.4803 313.244 47.995C314.211 47.7739 313.803 46.133 312.836 46.3541C293.824 50.7461 273.31 51.8466 256.31 39.7563C255.477 39.1618 254.706 40.6357 255.535 41.2301V41.2252Z" fill="#C3937C"/>
<path d="M267.8 42.1046C273.527 40.2623 279.498 38.8425 285.478 38.6657C286.462 38.6362 286.466 36.9364 285.478 36.9658C279.365 37.1476 273.243 38.587 267.392 40.4637C266.444 40.7683 266.847 42.4288 267.8 42.1095V42.1046Z" fill="#C3937C"/>
<path d="M286.289 43.4801C294.627 42.7224 303.021 43.6428 311.063 46.1969C312.016 46.4966 312.424 44.8557 311.476 44.556C303.3 41.9561 294.767 41.0141 286.289 41.7754C285.309 41.8638 285.3 43.5686 286.289 43.4801Z" fill="#C3937C"/>
<path d="M273.7 43.5194C277.052 47.2226 281.294 49.7805 285.921 50.8885C286.887 51.1194 287.299 49.4786 286.329 49.2428C281.965 48.2054 277.963 45.7952 274.804 42.301C274.66 42.1414 274.464 42.0518 274.261 42.0518C274.057 42.0518 273.862 42.1414 273.718 42.301C273.574 42.4607 273.493 42.6771 273.493 42.9029C273.493 43.1286 273.574 43.345 273.718 43.5047L273.7 43.5194Z" fill="#C3937C"/>
<path d="M286.586 43.5096C291.276 46.8841 296.632 48.9522 302.198 49.5375C303.178 49.6456 303.173 47.9409 302.198 47.8328C296.9 47.2572 291.806 45.2682 287.353 42.0358C286.52 41.4413 285.748 42.9151 286.577 43.5096H286.586Z" fill="#C3937C"/>
<path d="M164.101 59.5939C171.556 46.4064 182.465 36.0544 195.37 29.9209C196.256 29.4886 195.494 28.0196 194.594 28.447C181.458 34.7259 170.359 45.2905 162.776 58.7342C162.248 59.6676 163.578 60.5224 164.106 59.5939H164.101Z" fill="#C3937C"/>
<path d="M168.964 51.3945C172.027 34.6076 186.092 23.7308 201.402 26.5704C202.369 26.7521 202.785 25.0965 201.81 24.9295C185.72 21.9426 170.724 33.1682 167.483 50.9671C167.288 52.0381 168.769 52.495 168.964 51.4191V51.3945Z" fill="#C3937C"/>
<path d="M170.103 50.1959C176.605 49.2117 182.816 46.5832 188.254 42.5138C193.693 38.4445 198.215 33.0431 201.469 26.7276C201.961 25.7746 200.631 24.9148 200.139 25.863C196.985 31.9869 192.597 37.2209 187.318 41.157C182.039 45.093 176.011 47.6248 169.704 48.555C168.729 48.7024 169.141 50.3433 170.112 50.1959H170.103Z" fill="#C3937C"/>
<path d="M175.489 43.5145C177.612 38.8245 180.363 34.518 183.65 30.7413C184.337 29.9553 183.251 28.7468 182.564 29.5377C179.172 33.4126 176.332 37.8373 174.141 42.6597C173.698 43.6422 175.028 44.502 175.471 43.5194L175.489 43.5145Z" fill="#C3937C"/>
<path d="M186.376 34.5585C189.528 30.6923 193.587 27.8724 198.1 26.4132C199.044 26.1037 198.641 24.4481 197.688 24.7674C192.915 26.3064 188.62 29.2785 185.276 33.3549C184.611 34.1606 185.719 35.3692 186.367 34.5585H186.376Z" fill="#C3937C"/>
<path d="M180.157 39.319C184.327 39.8744 188.556 39.3928 192.537 37.9091C193.468 37.5652 193.069 35.9194 192.125 36.2633C188.276 37.6954 184.187 38.157 180.157 37.6143C179.177 37.4866 179.186 39.1913 180.157 39.319Z" fill="#C3937C"/>
<path d="M191.615 32.5296C193.484 32.7935 195.382 32.6584 197.205 32.1316C198.162 31.8565 197.754 30.2157 196.793 30.4859C195.103 30.9687 193.344 31.0838 191.615 30.8248C190.635 30.6873 190.644 32.392 191.615 32.5296Z" fill="#C3937C"/>
<path d="M315.762 36.4696C323.133 33.8462 330.563 35.4281 337.012 40.0166C337.85 40.6111 338.621 39.1372 337.788 38.5428C331.028 33.7381 323.076 32.0825 315.354 34.8238C314.414 35.1579 314.818 36.789 315.762 36.4696Z" fill="#C3937C"/>
<path d="M314.104 36.6661C320.35 42.2273 330.248 41.7311 337.717 40.4587C338.692 40.2917 338.276 38.6508 337.309 38.8179C330.496 39.9773 320.877 40.5275 315.19 35.4625C314.428 34.7845 313.333 35.9832 314.104 36.6661Z" fill="#C3937C"/>
<path d="M318.094 37.3882C323.919 37.812 329.721 38.5761 335.474 39.6776C336.44 39.8594 336.857 38.2038 335.882 38.0318C329.994 36.9056 324.056 36.1218 318.094 35.6835C317.105 35.6147 317.109 37.3195 318.094 37.3882Z" fill="#C3937C"/>
<path d="M203.885 44.723C215.589 43.8478 227.346 44.5339 238.903 46.7667C239.87 46.9534 240.286 45.2929 239.311 45.1209C227.627 42.8521 215.739 42.1478 203.903 43.0232C202.919 43.092 202.914 44.7967 203.903 44.723H203.885Z" fill="#C3937C"/>
<path d="M238.655 45.8579C239.768 45.205 240.964 44.7413 242.201 44.4823C242.392 44.4479 243.934 44.0647 244.098 44.2858C243.717 43.7699 242.578 44.6886 242.179 44.8213C241.612 45.0178 241.35 46.0691 241.993 46.3786L243.686 47.1794L244.395 47.5184C244.234 47.7251 244.012 47.8613 243.768 47.9027C243.524 47.9441 243.275 47.888 243.066 47.7444C242.935 47.7029 242.797 47.7016 242.666 47.7406C242.534 47.7795 242.415 47.8572 242.321 47.9654C241.878 48.5353 242.073 48.6827 242.037 49.341L242.192 49.7537C242.036 49.8072 241.869 49.7998 241.717 49.7327C241.565 49.6657 241.439 49.543 241.359 49.3852C240.966 48.9818 240.672 48.4748 240.503 47.9114C240.06 46.5309 239.688 45.1357 238.088 45.455C237.117 45.6614 237.525 47.3071 238.495 47.1008C238.518 47.1008 239.737 49.9453 239.994 50.2597C240.509 50.9539 241.222 51.4337 242.015 51.6205C242.338 51.6801 242.67 51.631 242.968 51.4795C243.266 51.328 243.516 51.0811 243.686 50.7706C243.828 50.4527 243.877 50.0941 243.828 49.7439C243.791 49.561 243.736 49.3831 243.664 49.2133C243.575 48.7908 243.491 48.7711 243.407 49.1592L242.658 49.3754C243.957 49.8667 245.929 49.9453 246.204 47.9802C246.479 46.0151 243.961 45.4698 242.782 44.9048C242.724 45.4255 242.662 45.9414 242.6 46.4621C243.509 46.1526 244.697 45.6466 245.215 44.6886C245.313 44.5286 245.378 44.3472 245.407 44.1567C245.435 43.9663 245.427 43.7712 245.381 43.5848C245.336 43.3985 245.255 43.2251 245.144 43.0765C245.032 42.9278 244.894 42.8075 244.737 42.7235C243.903 42.3109 242.676 42.6744 241.807 42.8513C240.434 43.1466 239.109 43.6665 237.875 44.3939C236.988 44.8851 237.773 46.359 238.651 45.8677L238.655 45.8579Z" fill="#C3937C"/>
<path d="M86.6042 72.9174C90.5936 67.4102 95.146 62.6743 100.94 59.5596C110.013 54.691 120.488 53.4874 130.404 52.7407C131.388 52.667 131.397 50.9622 130.404 51.0359C120.461 51.7827 110.102 53.001 100.944 57.6829C94.6939 60.8664 89.7957 65.8233 85.5182 71.7137C84.902 72.5587 85.9836 73.7722 86.6042 72.9174Z" fill="#C3937C"/>
<path d="M91.0281 67.4887C97.3048 50.3236 115.506 48.3879 129.779 51.8858C130.745 52.1216 131.157 50.4808 130.191 50.2449C114.974 46.5162 96.1612 48.948 89.5476 67.0318C89.1753 68.0488 90.6646 68.5057 91.0281 67.4887Z" fill="#C3937C"/>
<path d="M91.9235 66.9729C100.789 66.9434 109.911 65.9903 118.52 63.3669C124.256 61.6081 129.495 58.3215 131.521 51.7974C131.845 50.7608 130.36 50.3235 130.04 51.3454C127.625 59.1125 120.288 61.3527 113.741 62.8609C106.566 64.4762 99.2627 65.2843 91.9413 65.273C91.7379 65.273 91.5428 65.3626 91.399 65.522C91.2552 65.6814 91.1744 65.8976 91.1744 66.123C91.1744 66.3484 91.2552 66.5645 91.399 66.7239C91.5428 66.8833 91.7379 66.9729 91.9413 66.9729H91.9235Z" fill="#C3937C"/>
<path d="M98.67 60.6993C102.258 57.0053 106.333 53.9374 110.754 51.6009C111.64 51.1096 110.869 49.6603 109.978 50.127C105.433 52.5373 101.248 55.7033 97.5662 59.5153C96.8437 60.267 97.9297 61.4804 98.6523 60.7189L98.67 60.6993Z" fill="#C3937C"/>
<path d="M114.397 54.2538C117.753 52.0224 121.671 51.0571 125.563 51.5027C126.547 51.6058 126.539 49.9011 125.563 49.7979C121.397 49.3491 117.211 50.3944 113.622 52.78C112.771 53.34 113.542 54.8139 114.397 54.2538Z" fill="#C3937C"/>
<path d="M100.82 59.5841C107.344 62.6488 114.548 63.472 121.498 61.9471C122.469 61.731 122.061 60.0901 121.091 60.3063C114.537 61.7349 107.748 60.9722 101.587 58.1152C100.7 57.6829 99.9023 59.1518 100.811 59.589L100.82 59.5841Z" fill="#C3937C"/>
<path d="M110.027 56.1501C114.947 58.0415 123.254 60.7238 128.312 57.9186C129.198 57.4274 128.418 55.9535 127.536 56.4448C125.484 57.5846 122.478 57.1719 120.288 56.9361C116.931 56.5568 113.626 55.744 110.439 54.5141C109.499 54.1555 109.109 55.8012 110.027 56.155V56.1501Z" fill="#C3937C"/>
<path d="M135.333 74.0719C145.928 77.8624 157.048 79.5261 168.171 78.9846C169.159 78.9404 169.163 77.2357 168.171 77.2848C157.187 77.82 146.205 76.1796 135.741 72.4408C134.797 72.1019 134.411 73.7476 135.333 74.0817V74.0719Z" fill="#C3937C"/>
<path d="M146.783 76.9949C158.142 73.5325 170.211 74.276 181.154 79.1123C182.076 79.5151 182.484 77.8694 181.562 77.4714C170.351 72.5472 157.997 71.8107 146.375 75.3737C146.179 75.4336 146.012 75.5775 145.911 75.7738C145.811 75.97 145.785 76.2025 145.839 76.4201C145.893 76.6377 146.023 76.8226 146.2 76.934C146.377 77.0455 146.586 77.0745 146.783 77.0145V76.9949Z" fill="#C3937C"/>
<path d="M146.947 78.4934C157.625 86.3046 170.693 85.6463 181.704 79.1615C182.59 78.6457 181.801 77.1964 180.928 77.6877C170.387 83.8974 157.944 84.4967 147.723 77.0245C146.894 76.4202 146.127 77.894 146.947 78.4983V78.4934Z" fill="#C3937C"/>
<path d="M158.76 78.0609C161.863 76.3709 165.054 75.7176 168.512 75.5603C169.496 75.5161 169.5 73.8114 168.512 73.8556C164.802 74.0227 161.344 74.7694 157.993 76.592C157.107 77.0833 157.882 78.5571 158.769 78.0659L158.76 78.0609Z" fill="#C3937C"/>
<path d="M167.652 78.562C171.579 78.1371 175.534 78.1371 179.461 78.562C180.445 78.6652 180.436 76.9605 179.461 76.8573C175.534 76.4373 171.579 76.4373 167.652 76.8573C166.677 76.9605 166.668 78.6652 167.652 78.562Z" fill="#C3937C"/>
<path d="M152.638 78.4245C157.078 81.534 162.09 83.503 167.306 84.1871C168.281 84.3296 168.272 82.6249 167.306 82.4824C162.362 81.8096 157.617 79.9196 153.418 76.9507C152.581 76.3611 151.809 77.8349 152.638 78.4245Z" fill="#C3937C"/>
<path d="M163.06 79.7215C167.142 81.4251 171.523 82.0688 175.866 81.6031C176.845 81.5048 176.854 79.8001 175.866 79.9032C171.657 80.3547 167.411 79.7312 163.454 78.0806C162.523 77.6974 162.124 79.3432 163.042 79.7215H163.06Z" fill="#C3937C"/>
<path d="M390.01 75.7667C369.225 70.9768 346.405 72.7748 325.913 78.6505C324.955 78.9256 325.363 80.5665 326.321 80.2913C346.521 74.4992 369.101 72.6864 389.602 77.4125C390.564 77.6335 390.976 75.9927 390.01 75.7667Z" fill="#C3937C"/>
<path d="M365.479 73.104C353.413 69.0018 336.223 69.1738 326.068 78.4294C325.301 79.1221 326.396 80.3208 327.154 79.633C336.791 70.8785 353.653 70.8638 365.071 74.7448C366.02 75.0691 366.423 73.4233 365.479 73.104Z" fill="#C3937C"/>
<path d="M367.926 74.0228C362.424 79.34 355.604 82.6961 348.356 83.6531C341.107 84.61 333.766 83.1235 327.291 79.3875C326.405 78.8962 325.634 80.37 326.516 80.8613C340.603 88.8445 357.035 86.678 369.012 75.2313C369.761 74.514 368.671 73.3153 367.926 74.0277V74.0228Z" fill="#C3937C"/>
<path d="M334.207 83.6566C339.442 81.7652 344.991 79.4955 349.424 75.7962C350.204 75.1428 349.424 73.6641 348.648 74.3224C344.304 77.9579 338.923 80.1735 333.799 82.0207C332.863 82.3597 333.262 83.9858 334.207 83.6665V83.6566Z" fill="#C3937C"/>
<path d="M348.586 84.9634C354.229 81.7996 360.337 78.7734 365.311 74.3863C366.082 73.7034 364.987 72.5047 364.22 73.1777C359.371 77.4617 353.316 80.4044 347.819 83.4945C346.933 83.9858 347.713 85.4596 348.595 84.9684L348.586 84.9634Z" fill="#C3937C"/>
<path d="M333.564 75.4769C336.001 75.4767 338.429 75.8067 340.793 76.4594C341.76 76.7002 342.172 75.0593 341.206 74.8186C338.706 74.1303 336.139 73.7838 333.564 73.7869C332.575 73.8213 332.571 75.526 333.564 75.4916V75.4769Z" fill="#C3937C"/>
<path d="M344.167 73.2514C347.695 73.6444 351.206 74.1783 354.699 74.8529C355.665 75.0396 356.082 73.3791 355.107 73.2121C351.478 72.5112 347.831 71.9561 344.167 71.5467C343.183 71.4386 343.192 73.1384 344.167 73.2514Z" fill="#C3937C"/>
<path d="M369.712 56.1599C385.953 68.0003 403.054 78.3216 420.839 87.0169C421.726 87.459 422.519 85.9901 421.615 85.5431C403.83 76.8478 386.728 66.5265 370.488 54.6861C369.659 54.0818 368.888 55.5556 369.712 56.1599Z" fill="#C3937C"/>
<path d="M391.623 68.7661C378.729 65.6367 365.914 60.778 359.03 47.3023C358.542 46.3443 357.212 47.204 357.7 48.162C364.792 62.0307 377.895 67.1793 391.211 70.407C392.177 70.6428 392.585 69.0019 391.619 68.7661H391.623Z" fill="#C3937C"/>
<path d="M358.666 48.4911C372.939 48.7515 386.654 56.0518 392.492 71.1242C392.882 72.1067 394.203 71.2617 393.822 70.2645C387.78 54.6665 373.431 47.0566 358.671 46.7864C357.678 46.7864 357.678 48.4715 358.671 48.4911H358.666Z" fill="#C3937C"/>
<path d="M363.773 49.3607C367.335 51.5027 370.525 54.3307 373.192 57.7124C373.844 58.5426 374.93 57.3341 374.278 56.5087C371.523 53.0116 368.228 50.0855 364.548 47.8672C363.662 47.3415 362.904 48.8154 363.773 49.341V49.3607Z" fill="#C3937C"/>
<path d="M375.781 52.8733C378.884 56.8035 381.902 60.9744 384.012 65.6858C384.456 66.6683 385.786 65.8086 385.342 64.826C383.179 59.9919 380.076 55.7031 376.871 51.6648C376.215 50.8443 375.134 52.0529 375.785 52.8733H375.781Z" fill="#C3937C"/>
<path d="M362.376 54.0572C365.355 55.2167 368.139 56.6757 371.291 57.2309C372.199 57.393 372.594 55.8504 371.676 55.6883C368.529 55.1331 365.741 53.674 362.762 52.5146C361.876 52.1707 361.503 53.7183 362.376 54.0572Z" fill="#C3937C"/>
<path d="M369.509 61.0776C372.682 62.1977 375.971 62.4237 379.225 63.0918C380.191 63.2933 380.608 61.6524 379.633 61.451C376.384 60.7779 373.09 60.5569 369.921 59.4318C368.977 59.0978 368.591 60.7435 369.509 61.0776Z" fill="#C3937C"/>
<path d="M355.479 54.8334C355.594 52.9076 356.135 46.6832 353.967 45.6122C351.8 44.5412 350.718 48.8104 350.639 50.3677L351.725 49.675C349.951 48.3584 345.909 45.5041 344.034 48.2896C342.438 50.6478 345.173 52.7602 347.004 53.1041V51.5566C345.381 51.8268 341.113 51.6696 340.949 54.4158C340.785 57.1621 344.747 56.8722 346.188 56.9459C346.02 56.4939 345.851 56.037 345.678 55.5802C343.834 57.2751 343.706 59.8936 346.432 60.4045C349.708 61.0137 353.254 58.7833 355.466 56.322C355.586 56.1691 355.65 55.9711 355.644 55.7681C355.638 55.5651 355.562 55.3723 355.433 55.2287C355.303 55.0851 355.129 55.0014 354.946 54.9946C354.763 54.9878 354.584 55.0584 354.446 55.192C353.15 56.6917 351.527 57.7964 349.734 58.4001C348.582 58.7734 344.065 59.137 346.702 56.715C347.221 56.2237 346.76 55.3836 346.188 55.3443C345.302 55.2903 342.571 54.9022 344.415 53.5856C345.044 53.1434 346.631 53.227 347.367 53.0943C348.103 52.9617 348.05 51.6745 347.367 51.5468C345.825 51.609 345.545 51.0915 346.529 49.9944C346.662 48.8792 347.088 48.5942 347.797 49.1444C348.763 49.1887 350.204 50.4856 350.971 51.0457C351.081 51.1145 351.205 51.1505 351.332 51.1502C351.458 51.1499 351.582 51.1134 351.692 51.0441C351.802 50.9748 351.894 50.8752 351.958 50.755C352.023 50.6347 352.059 50.4979 352.061 50.3579C351.911 49.0478 352.437 48.2012 353.639 47.818C353.824 48.7622 353.951 49.7191 354.021 50.6821C354.116 52.0606 354.116 53.4451 354.021 54.8236C353.959 55.8504 355.404 55.8454 355.466 54.8236L355.479 54.8334Z" fill="#C3937C"/>
<path d="M352.731 52.0922C351.908 51.9597 351.069 52.1676 350.376 52.6762C349.682 53.1848 349.182 53.9585 348.97 54.8498C348.757 55.7411 348.849 56.6878 349.226 57.5093C349.603 58.3307 350.24 58.9696 351.015 59.3041C355.005 61.1267 356.836 53.0846 352.904 52.6866C351.977 52.5933 351.982 54.1948 352.904 54.2882C354.078 54.4061 353.653 56.5038 353.258 57.2358C352.638 58.3461 351.432 58.0808 350.772 57.1621C349.561 55.4722 350.984 53.4825 352.731 53.7232C353.653 53.846 353.644 52.2494 352.731 52.1217V52.0922Z" fill="#C3937C"/>
<path d="M306.914 9.21364C306.538 8.27039 305.837 6.72779 306.028 5.66663C305.691 4.73321 305.895 4.5023 306.644 4.98375C307.279 4.92807 307.575 5.25559 307.53 5.9663C307.565 6.10006 307.631 6.22154 307.721 6.31888C307.81 6.41622 307.921 6.48612 308.043 6.52174C308.164 6.55737 308.292 6.55752 308.414 6.52216C308.535 6.48681 308.646 6.41716 308.736 6.32002C309.734 5.19009 310.753 3.99629 312.003 3.21025C313.052 2.11307 313.883 2.29484 314.494 3.75556C314.039 4.5372 313.499 5.25338 312.885 5.88771C312.482 6.3446 312.743 7.32715 313.395 7.25346C315.735 6.99308 317.952 6.80148 320.071 8.23601V6.85552C318.012 8.01517 315.785 8.76353 313.492 9.06626C313.342 9.07867 313.198 9.1425 313.082 9.24898C312.965 9.35546 312.881 9.49936 312.841 9.66091C312.801 9.82246 312.808 9.99372 312.859 10.1512C312.911 10.3086 313.005 10.4445 313.129 10.5401C313.974 10.7759 314.076 11.3114 313.435 12.1466C313.368 13.5713 312.69 13.8562 311.391 12.9965C309.994 12.5213 308.733 11.649 307.734 10.4664C307.599 10.3188 307.416 10.2365 307.226 10.2373C307.036 10.2381 306.853 10.322 306.719 10.4706C306.584 10.6193 306.507 10.8209 306.506 11.0316C306.504 11.2423 306.578 11.4452 306.71 11.5963C308.484 13.5614 312.757 16.4305 315.341 14.485C317.557 12.8 315.341 10.1421 313.856 9.15959L313.492 10.6334C316.038 10.2906 318.51 9.45943 320.798 8.17704C320.905 8.10538 320.994 8.00418 321.056 7.88323C321.117 7.76229 321.15 7.62572 321.15 7.4868C321.15 7.34788 321.117 7.21132 321.056 7.09038C320.994 6.96944 320.905 6.86822 320.798 6.79656C318.479 5.23921 316.028 5.32274 313.395 5.60768L313.905 6.97834C314.951 5.79928 317.819 2.61089 315.864 1.03881C313.275 -1.03929 309.215 3.44606 307.712 5.14096L308.922 5.49468C308.563 3.85382 307.03 0.940558 305.163 2.76319C303.532 4.35492 305.013 8.30478 305.686 9.98495C306.063 10.9282 307.309 10.1127 306.936 9.17925L306.914 9.21364Z" fill="#C3937C"/>
<path d="M308.776 7.26823C307.176 7.26823 305.389 7.84792 304.76 9.65091C304.13 11.4539 305.021 13.0358 306.613 13.5516C308.04 14.0183 309.924 13.6597 310.651 12.0778C310.806 11.7532 310.898 11.3964 310.921 11.0302C310.944 10.664 310.898 10.2964 310.786 9.951C310.674 9.60558 310.498 9.28993 310.269 9.02423C310.041 8.75854 309.765 8.54864 309.459 8.40798C308.572 8.01987 308.217 9.57231 309.073 9.95059C309.667 10.2159 309.516 11.2328 309.175 11.6406C308.603 12.3136 307.464 12.2694 306.75 11.9353C306.574 11.8584 306.416 11.7352 306.292 11.5762C306.168 11.4172 306.08 11.2272 306.036 11.0225C305.993 10.8177 305.995 10.6043 306.042 10.4005C306.089 10.1967 306.18 10.0086 306.307 9.85233C306.857 9.01225 307.929 8.86978 308.789 8.86978C308.981 8.86978 309.165 8.78541 309.3 8.63524C309.436 8.48506 309.512 8.28139 309.512 8.06901C309.512 7.85663 309.436 7.65295 309.3 7.50278C309.165 7.3526 308.981 7.26823 308.789 7.26823H308.776Z" fill="#C3937C"/>
</svg>
