<svg width="162" height="191" viewBox="0 0 162 191" fill="none" xmlns="http://www.w3.org/2000/svg">
<path d="M38.1802 188.844C37.86 188.289 37.7733 188.152 37.5722 187.803C6.53574 134.047 25.1386 64.9927 79.0407 33.8723C98.3302 22.7003 120.501 17.5108 142.726 18.9655C147.242 19.2609 158.44 19.2139 158.44 19.2139C131 13.5813 102.42 18.2301 78.1444 32.275C23.3693 63.8994 4.46046 134.08 36.0028 188.713C36.2034 189.061 36.4055 189.406 36.6091 189.751C37.5055 191.267 38.9489 189.509 38.1802 188.844Z" fill="#C3937C"/>
<path d="M55.9305 110.184C55.5635 107.763 54.6588 105.413 52.3541 104.31C50.3699 103.352 48.0816 103.331 45.9595 103.765C41.0105 104.774 37.1561 108.108 34.0901 111.967C29.771 117.419 25.588 131.081 25.7003 131.231C24.4649 132.025 23.0748 131.904 21.903 132.802C21.3885 133.195 22.071 135.019 22.5855 134.626C26.3173 131.737 30.4476 129.402 34.8474 127.695C38.9592 126.116 43.3713 125.487 47.439 123.819C53.0776 121.488 56.8895 116.455 55.9305 110.184ZM54.1302 116.517C54.116 116.5 54.098 116.486 54.0775 116.476C54.057 116.467 54.0345 116.462 54.0119 116.463C53.9893 116.463 53.9671 116.469 53.9471 116.48C53.927 116.49 53.9096 116.505 53.8962 116.523C50.7116 121.32 45.2562 122.395 40.0345 123.58C41.0749 123.134 42.0945 122.653 43.098 122.118C47.6801 119.656 51.7438 116.333 55.0652 112.332C55.0556 112.682 55.0349 113.037 54.9938 113.39C54.8695 114.467 54.5821 115.52 54.1413 116.511L54.1302 116.517ZM30.3471 122.924C30.2332 123.155 30.1215 123.39 30.0119 123.628C30.0662 123.427 30.1264 123.229 30.1851 123.029C30.2053 123.032 30.2261 123.03 30.2453 123.023C30.2646 123.016 30.2816 123.004 30.2948 122.988L30.3471 122.924ZM28.3375 127.926C28.4985 127.781 28.6671 127.644 28.8424 127.516C28.5914 127.794 28.3415 128.068 28.0993 128.348C28.1853 128.221 28.2612 128.07 28.3375 127.926ZM28.9441 127.095C28.9441 127.095 28.958 127.087 28.9663 127.082L28.9441 127.095ZM28.9119 126.77C28.9697 126.652 29.0242 126.528 29.0747 126.41L29.0231 126.68C28.9985 126.701 28.9588 126.735 28.9203 126.765L28.9119 126.77ZM29.2785 126.891L29.2914 126.817C29.5276 126.629 29.7609 126.442 30.0003 126.26C29.8432 126.425 29.6818 126.588 29.5386 126.745C29.4481 126.793 29.3675 126.84 29.2868 126.886L29.2785 126.891ZM29.3644 126.398C29.4351 125.987 29.5198 125.595 29.6084 125.196L29.6428 125.12C30.1452 123.959 30.7263 122.833 31.3819 121.75C37.4354 115.097 44.9143 109.895 53.2585 106.532C53.3415 106.624 53.4175 106.717 53.4966 106.816C48.4323 110.275 43.5751 114.027 38.9498 118.054C36.3394 120.3 33.6733 122.579 31.2037 125.044C30.5886 125.462 29.9757 125.915 29.3783 126.39L29.3644 126.398ZM29.3457 125.081C29.0234 125.807 28.7161 126.521 28.3595 127.226C28.2198 127.343 28.0753 127.453 27.9372 127.573C27.918 127.592 27.9048 127.616 27.8992 127.642C27.8935 127.669 27.8957 127.696 27.9054 127.721C27.9152 127.746 27.932 127.768 27.9539 127.783C27.9758 127.799 28.0018 127.808 28.0287 127.809C27.8739 127.954 27.7279 128.109 27.5917 128.272C29.2772 123.601 30.7218 118.745 33.4111 114.593C31.5429 117.866 30.1764 121.399 29.3569 125.075L29.3457 125.081ZM28.8232 127.971L28.8131 128.043C28.7658 128.071 28.7213 128.096 28.674 128.124C28.7323 128.064 28.7823 128.009 28.8295 127.956L28.8232 127.971ZM29.1725 127.581C29.3561 127.379 29.5381 127.174 29.7277 126.976C30.7328 126.476 31.794 126.098 32.8886 125.849C31.5901 126.421 30.334 127.084 29.13 127.835L29.1725 127.581ZM55.0539 111.947C55.0402 111.948 55.0269 111.953 55.015 111.96C55.003 111.966 54.9926 111.976 54.9844 111.987C51.0292 116.803 46.0054 120.634 40.3125 123.175C39.4621 123.552 38.5996 123.868 37.7326 124.158C36.8578 124.39 35.9975 124.646 35.1623 124.94C34.0085 125.266 32.8495 125.576 31.6865 125.919C31.2096 126.058 30.7404 126.223 30.281 126.412C30.6601 126.016 31.0464 125.619 31.4503 125.227C35.1198 122.657 39.1269 120.621 42.9347 118.226C47.1936 115.535 50.901 112.119 54.5406 108.675C54.8987 109.723 55.0745 110.824 55.0603 111.932L55.0539 111.947ZM54.3971 108.388C50.2192 112.331 45.9825 116.082 41.0144 119.036C38.1992 120.709 35.3323 122.287 32.6089 124.081C34.5131 122.242 36.5426 120.505 38.526 118.79C43.3281 114.57 48.3834 110.646 53.6636 107.041C53.9592 107.456 54.2073 107.903 54.4035 108.374L54.3971 108.388ZM53.0555 106.309C45.1612 109.509 38.038 114.354 32.1619 120.52C32.734 119.642 33.3433 118.784 33.9934 117.913C38.0553 112.414 42.6156 107.104 49.1194 104.525C50.6076 104.611 52.0109 105.24 53.0619 106.294L53.0555 106.309ZM48.4507 104.497C43.1867 106.745 39.192 110.749 35.664 115.207C34.007 117.314 32.3148 119.481 30.9451 121.803C30.7273 122.042 30.5137 122.288 30.3045 122.542C31.5006 118.561 33.3534 114.806 35.7865 111.432C39.023 107.663 43.4585 104.429 48.457 104.482L48.4507 104.497ZM27.9415 128.987C28.2067 128.804 28.4735 128.624 28.7452 128.452C28.7021 128.795 28.6591 129.138 28.622 129.485C27.9853 129.852 27.8648 129.881 27.2222 130.271C27.4036 129.807 27.6477 129.37 27.9478 128.972L27.9415 128.987ZM45.8031 123.381C41.6171 124.87 37.2371 125.605 33.1147 127.32C31.6907 127.913 30.2977 128.578 28.941 129.312C28.9776 128.958 29.0187 128.605 29.0696 128.25C33.577 125.482 38.4358 124.407 43.7199 123.06C47.7137 122.041 51.4715 120.434 53.9085 117C52.3395 120.088 49.3098 122.122 45.8094 123.366L45.8031 123.381Z" fill="#C3937C"/>
<path d="M22.6146 133.925C21.3144 131.474 19.8882 129.081 18.4064 126.72C18.4482 126.647 18.4682 126.564 18.4641 126.48C18.1477 118.868 19.6496 111.106 18.2899 103.55C17.3006 97.9834 13.991 90.6584 7.55322 90.0901C1.11549 89.5218 -0.715342 95.6293 0.643629 100.808C2.47449 107.774 8.01396 112.932 11.9573 118.716C15.4203 123.789 17.9545 131.151 20.8397 136.592C21.1488 137.153 22.9138 134.488 22.6146 133.925ZM8.75859 111.127C9.05032 112.232 9.41728 113.316 9.8569 114.371C8.13732 112.195 6.40136 110.011 4.92132 107.704C6.18176 108.821 7.48485 109.954 8.76694 111.122L8.75859 111.127ZM13.8518 119.737C13.7878 119.626 13.707 119.524 13.6362 119.421C12.5416 117.487 11.6661 115.437 11.0262 113.308C11.8395 114.132 12.6168 114.978 13.3388 115.862C13.4454 117.303 13.7019 118.729 14.1041 120.116L13.8518 119.737ZM12.4148 117.697C11.7976 116.859 11.1577 116.027 10.5095 115.2C10.0115 114.188 9.59986 113.135 9.27901 112.054C9.21985 111.855 9.16626 111.653 9.11266 111.451C9.61763 111.921 10.1202 112.4 10.6089 112.887C11.1035 114.529 11.7068 116.136 12.4148 117.697ZM14.9592 121.404C14.9592 121.404 14.948 121.385 14.9416 121.374C14.8968 121.296 14.8536 121.221 14.7853 121.161L14.6085 120.893C14.0575 119.356 13.6991 117.756 13.5414 116.13C13.6857 116.309 13.8256 116.487 13.9643 116.669C14.3105 118.745 14.9244 120.767 15.7908 122.684L14.9592 121.404ZM13.508 115.635C13.4808 115.222 13.4635 114.807 13.4589 114.388C13.4617 114.142 13.4716 113.896 13.4752 113.639C13.5964 114.453 13.7205 115.265 13.86 116.072C13.7465 115.926 13.6254 115.774 13.5016 115.624L13.508 115.635ZM17.4366 124.925C15.7566 122.567 14.9017 119.892 14.3208 117.133C15.7414 119.02 16.8 121.154 17.4432 123.427C17.4305 123.919 17.427 124.42 17.4318 124.916L17.4366 124.925ZM17.4413 125.151L17.4431 125.206L17.4191 125.164C17.4269 125.159 17.4331 125.152 17.4365 125.143L17.4413 125.151ZM17.5707 119.834C17.1214 117.431 16.5318 115.061 16.1402 112.637C15.5158 108.749 16.1553 104.527 16.5167 100.562C16.6386 100.946 16.7572 101.325 16.8612 101.698C18.4706 107.542 17.8749 113.728 17.5659 119.825L17.5707 119.834ZM16.2793 99.8745C15.9562 103.758 15.3298 107.862 15.7182 111.745C16.0613 114.908 16.9653 118.002 17.4978 121.159L17.4514 122.517C16.7098 120.339 15.6046 118.303 14.1826 116.495C13.9343 115.186 13.7365 113.854 13.5447 112.527C13.7686 110.179 14.2934 107.839 14.2775 105.448C14.2251 100.632 12.2575 96.1256 10.2023 91.8402C13.1995 93.3522 15.1382 96.6845 16.2825 99.8801L16.2793 99.8745ZM8.20187 91.1686C8.74495 91.273 9.27505 91.4355 9.78298 91.6533C12.6547 97.719 14.4944 103.249 13.5495 110.121C13.4874 110.578 13.4391 111.027 13.3952 111.478C13.1653 109.917 12.917 108.364 12.5578 106.855C11.2097 101.276 8.97992 95.9487 5.95228 91.0736C6.70429 90.9943 7.46368 91.0282 8.20507 91.1742L8.20187 91.1686ZM5.63798 91.1071C9.05279 96.5771 11.4521 102.619 12.7211 108.943C12.9539 110.136 13.1373 111.346 13.322 112.552C13.2645 113.498 13.2623 114.446 13.3154 115.391C12.5379 114.469 11.7108 113.582 10.8464 112.72C10.1329 110.444 9.51439 108.121 8.69357 105.877C7.06847 101.503 4.90114 97.3497 2.24211 93.5151C2.58338 92.8788 3.06829 92.3304 3.65832 91.9134C4.24836 91.4964 4.92727 91.2222 5.64119 91.1127L5.63798 91.1071ZM2.08389 93.8061C5.28247 98.4732 7.75791 103.596 9.42693 109.003C9.77124 110.113 10.0861 111.211 10.4304 112.321C9.95448 111.856 9.47023 111.396 8.97765 110.941C8.72013 109.688 8.37893 108.453 7.95627 107.246C6.68768 104.015 4.14489 101.774 1.54775 99.5876C1.53249 99.5742 1.51456 99.5642 1.49513 99.5582C1.47569 99.5523 1.45522 99.5504 1.43501 99.5529C1.12278 97.548 1.28854 95.4337 2.08709 93.8117L2.08389 93.8061ZM1.49912 99.9337C5.13071 103.013 7.419 105.911 8.61761 110.613C7.20617 109.324 5.76585 108.082 4.39359 106.848C3.35173 105.163 2.50989 103.362 1.88507 101.482C1.72568 100.976 1.59785 100.461 1.50233 99.9392L1.49912 99.9337Z" fill="#C3937C"/>
<path d="M64.3935 82.6033C66.278 79.0418 65.7106 76.0234 61.7716 74.4598C56.0513 72.1868 50.3344 76.482 45.9359 79.6833C39.5329 84.3377 34.7809 90.4199 30.4383 96.9608C30.3754 97.044 30.3464 97.148 30.3573 97.2515C30.3682 97.3551 30.4182 97.4505 30.4971 97.5185C28.4883 98.534 26.763 98.1141 25.1088 100.219C24.7169 100.715 25.2578 103.283 25.6565 102.779C31.2746 95.6609 39.2096 96.6588 47.0615 94.4882C53.5849 92.6814 61.0965 88.8363 64.3935 82.6033ZM51.0673 92.0386C45.108 93.3693 39.1655 94.7802 33.2397 96.2715C37.1749 92.0621 43.2009 91.3523 48.6947 90.3692C53.9666 89.4256 57.9756 87.4696 62.1949 84.3496C60.6502 86.0646 58.8929 87.5762 56.9657 88.8476C55.1071 90.0989 53.1317 91.1676 51.0673 92.0386ZM31.8805 96.5756C32.1441 96.3901 32.4062 96.2019 32.673 96.0219C32.6848 96.0329 32.6986 96.0413 32.7138 96.0468C32.7289 96.0522 32.745 96.0545 32.7611 96.0535C32.7772 96.0525 32.7929 96.0483 32.8073 96.041C32.8217 96.0338 32.8345 96.0237 32.8449 96.0114C32.9325 95.9128 33.0206 95.8213 33.1082 95.7226C33.1958 95.6239 33.2555 95.6375 33.3306 95.5942C33.1595 95.8372 32.9927 96.0813 32.8276 96.3283C32.797 96.3459 32.7777 96.383 32.7535 96.4117C32.456 96.4873 32.1598 96.5585 31.8652 96.6325C31.8722 96.6141 31.8774 96.5951 31.8805 96.5756ZM34.1108 95.0513C34.0358 95.0946 33.9751 95.1629 33.9096 95.2229C33.9319 95.2101 33.9457 95.1762 33.9615 95.1523C33.9773 95.1283 34.0779 95.0777 34.1247 95.0433L34.1108 95.0513ZM62.7827 83.6146C62.7646 83.6098 62.7456 83.6094 62.7273 83.6135C62.709 83.6176 62.692 83.6261 62.6777 83.6383C59.9715 85.6998 57.2421 87.7082 53.9897 88.817C50.957 89.8506 47.7462 90.2033 44.6122 90.7852C42.1547 91.2354 39.7072 91.8572 37.4988 92.8993C45.7824 87.8533 54.733 83.995 64.0876 81.4378C63.7468 82.2102 63.3133 82.9385 62.7966 83.6066L62.7827 83.6146ZM64.2262 81.1064C53.6612 83.9671 43.6133 88.4816 34.4568 94.4818C34.5301 94.3841 34.599 94.2851 34.6612 94.1937C36.5831 92.6552 38.4653 91.0288 40.3686 89.4196C43.0603 87.5872 45.97 86.0974 49.03 84.9847C54.2705 83.0683 59.7681 82.0534 64.6062 79.164C64.599 79.825 64.475 80.4798 64.2401 81.0983L64.2262 81.1064ZM64.5974 78.6736C64.6016 78.7193 64.597 78.7626 64.6011 78.8083C59.1324 82.1209 52.7906 83.0094 46.9645 85.4525C45.2759 86.1601 43.6408 86.9892 42.0721 87.9333C48.3632 82.6226 54.9111 77.7182 63.3627 76.7726C63.3855 76.7692 63.4073 76.7606 63.4263 76.7476C63.4453 76.7345 63.4611 76.7172 63.4724 76.6971C63.4837 76.677 63.4902 76.6546 63.4915 76.6316C63.4928 76.6086 63.4888 76.5856 63.4798 76.5644C64.1177 77.0953 64.5253 77.8519 64.6178 78.6767L64.5974 78.6736ZM63.4219 76.5091C63.4219 76.5091 63.3904 76.4867 63.3633 76.4912C54.1674 77.5153 47.2106 83.1882 40.4157 89.0005C38.8841 90.0316 37.4246 91.1658 36.0473 92.3952C41.9354 85.0382 49.3737 79.0659 57.8316 74.9043C57.8489 74.8964 57.8642 74.8847 57.8762 74.87C57.8883 74.8553 57.8969 74.8381 57.9014 74.8197C57.9191 74.8196 57.9368 74.818 57.9543 74.815C59.5666 74.7567 62.0038 75.2537 63.4422 76.5122L63.4219 76.5091ZM57.2712 74.884C48.4158 79.32 40.7019 85.7374 34.7318 93.6354C34.472 93.8852 34.2181 94.139 33.9674 94.3983C33.551 94.7238 33.1302 95.048 32.709 95.3652C36.7538 89.5286 41.2353 84.1978 47.1246 80.0471C50.0921 77.9567 53.564 75.3015 57.2835 74.8732L57.2712 74.884ZM31.6112 96.9825L31.7555 96.9435L31.5875 97.0184L31.6112 96.9825ZM40.4201 94.8064C43.3699 94.0893 46.327 93.4 49.2915 92.7385C47.4979 93.3851 45.6547 93.8842 43.7802 94.2308C42.6562 94.4286 41.5342 94.6106 40.4324 94.7956L40.4201 94.8064Z" fill="#C3937C"/>
<path d="M26.0499 103.942C25.7163 101.704 25.1542 99.5063 24.3724 97.3832C24.4545 97.3026 24.5057 97.1959 24.5171 97.0816C24.9336 93.2791 25.8739 89.5511 27.3114 86.0032C28.2743 83.5358 29.1169 81.1489 29.3529 78.4948C29.8585 72.8788 28.4371 64.9331 23.1139 61.7618C18.4015 58.955 11.8555 63.0856 11.3201 68.2456C10.7458 73.672 14.5571 79.1176 16.9154 83.716C20.1942 90.1271 22.8787 98.1864 23.8843 105.418C23.9783 106.063 26.1431 104.573 26.0499 103.942ZM24.8426 89.2144C24.8227 88.9744 24.8144 88.7352 24.8005 88.4992C24.9844 86.6097 24.9263 84.7051 24.6274 82.8314C24.6791 77.6679 25.3169 72.5255 26.5286 67.5028C27.6832 69.8808 28.336 72.4713 28.4464 75.1139C28.423 75.1294 28.4048 75.1515 28.394 75.1773C27.1847 78.1388 26.2604 81.2079 25.6336 84.3431C25.1746 86.7008 25.0524 89.1154 24.4946 91.4562L24.3705 91.9604C24.299 92.2346 24.2171 92.5038 24.1281 92.7733C24.1255 92.6084 24.1202 92.4451 24.1089 92.2778C24.3646 91.3151 24.5605 90.3377 24.6954 89.3511C24.7143 89.3567 24.7344 89.3576 24.7537 89.3535C24.773 89.3495 24.7911 89.3407 24.8062 89.3279C24.8213 89.3152 24.8329 89.2988 24.8401 89.2805C24.8473 89.2621 24.8498 89.2423 24.8474 89.2227L24.8426 89.2144ZM23.1145 94.2348C23.0414 92.1177 23.0002 89.9786 22.8861 87.8483C23.3856 89.2553 23.6978 90.7221 23.8146 92.2111C23.639 92.9329 23.4267 93.6453 23.1785 94.3457L23.1145 94.2348ZM23.3241 94.6942C23.3408 94.6846 23.3547 94.6765 23.3686 94.6685C23.5533 94.1921 23.71 93.706 23.8609 93.2159L23.856 93.5478C23.7699 93.7713 23.7019 94.0065 23.5931 94.2098C23.5808 94.2364 23.5766 94.266 23.5812 94.2949C23.5857 94.3238 23.5988 94.3506 23.6187 94.372C23.6386 94.3934 23.6645 94.4084 23.693 94.4151C23.7215 94.4218 23.7514 94.4198 23.7788 94.4095C23.7684 94.5005 23.7651 94.5912 23.7531 94.6795C23.7507 94.7091 23.7574 94.7387 23.7723 94.7645C23.7872 94.7902 23.8095 94.8108 23.8363 94.8237C23.7958 95.0874 23.7648 95.3419 23.7255 95.6271L23.3241 94.6942ZM25.9773 86.7106C25.7082 87.4132 25.465 88.1156 25.2365 88.8243C25.3971 87.6704 25.5341 86.508 25.7333 85.3504C26.3177 82.0779 27.2332 78.8723 28.4657 75.783C28.478 76.3822 28.4651 76.9849 28.427 77.5911C28.2237 80.8733 27.1402 83.6841 25.9821 86.7189L25.9773 86.7106ZM26.3996 67.2409C26.3705 67.2385 26.3415 67.2468 26.3181 67.2644C26.2947 67.282 26.2787 67.3075 26.273 67.3362C25.1503 71.9539 24.5112 76.6745 24.3661 81.422C23.7711 78.767 22.809 76.2464 22.6968 73.4901C22.5672 70.3889 23.3612 66.884 24.0484 63.8621C24.5878 64.4069 25.0683 65.0069 25.4823 65.652C25.8239 66.1794 26.1296 66.7091 26.4044 67.2492L26.3996 67.2409ZM23.8185 63.6436C23.8185 63.6436 23.8185 63.6436 23.7991 63.6549C22.7128 68.4193 21.9215 73.335 23.1872 78.128C23.7114 80.0566 24.0924 82.0215 24.3272 84.0067C24.3349 85.2593 24.3872 86.5121 24.4642 87.7691C24.4165 88.9861 24.2662 90.1971 24.0148 91.3893C23.7899 89.9179 23.3973 88.4774 22.8446 87.0958C22.7262 84.6495 22.4093 82.2173 21.8971 79.8231C20.5277 73.7848 18.6757 68.2655 18.5711 62.0035C20.6623 61.6059 22.4166 62.3456 23.8234 63.6519L23.8185 63.6436ZM18.181 62.0919C18.2144 62.0727 18.2578 62.0772 18.296 62.0663C18.3896 67.5581 19.6397 72.5487 21.0937 77.8282C21.8023 80.5326 22.2545 83.298 22.4445 86.0882C21.836 84.6168 21.1539 83.1657 20.5554 81.718C18.1332 75.8661 16.1412 69.873 15.0597 63.6205C15.9932 62.9152 17.0559 62.3996 18.1875 62.103L18.181 62.0919ZM14.8308 63.834C15.8021 69.1475 17.305 74.3491 19.3167 79.3607C20.2483 81.7511 21.5466 84.2182 22.524 86.7522C22.6737 88.8287 22.7434 90.9144 22.8171 92.9941C21.3556 84.2471 14.1459 77.7504 12.2682 69.1364C12.2785 68.5387 12.3553 67.9438 12.4972 67.3627C12.8786 65.9688 13.6964 64.7323 14.8308 63.834ZM14.9791 77.7167C13.8818 75.5144 12.6572 73.0528 12.3432 70.5314C14.6088 78.3852 21.0201 84.6035 22.4875 92.7444C21.5087 90.5994 20.4448 88.4998 19.4244 86.4565C17.9495 83.5294 16.4222 80.64 14.9632 77.7148L14.9791 77.7167Z" fill="#C3937C"/>
<path d="M40.1237 70.2135C40.5032 68.7262 39.4785 68.1199 39.3435 66.5377C39.3858 66.4844 39.4173 66.4236 39.4364 66.3584C41.8083 57.8939 48.4093 49.7939 47.1724 40.5882C46.3305 34.3526 40.1917 27.855 33.4791 31.0872C26.262 34.5627 28.4761 43.9584 31.5472 49.4061C35.0109 55.5403 39.979 63.4903 38.0788 70.9097C37.9074 71.5374 39.9633 70.8347 40.1237 70.2135ZM38.2056 61.0609C37.9094 56.4254 38.3461 51.7365 37.3064 47.1939C36.2199 42.4675 33.9067 38.1462 31.6045 33.9147C32.6512 32.6697 34.0917 31.8184 35.6872 31.502C38.8787 36.0889 40.733 41.4723 41.0444 47.0545L41.0601 47.5889C40.8685 48.3872 40.6713 49.1887 40.4726 49.9875C39.4083 54.213 38.8206 58.5431 38.7207 62.8969C38.5678 62.2789 38.3923 61.6667 38.2056 61.0609ZM38.9888 64.0805C38.9596 58.8287 39.9024 53.8735 41.0769 48.8252C41.0442 54.0018 39.8627 59.2242 39.0281 64.3091L38.988 64.092L38.9888 64.0805ZM46.3001 43.5912C46.0517 49.1585 43.4174 54.1697 41.1148 59.2482C41.3125 55.7439 42.0741 52.2931 43.3702 49.0281C44.4462 46.3327 45.5768 43.6871 46.1828 40.8712C46.2994 41.7708 46.3376 42.6791 46.2969 43.5857L46.3001 43.5912ZM46.0532 40.0365C45.4595 43.4517 44.0152 46.5557 42.7821 49.7818C41.5144 53.1018 40.9857 56.302 40.7855 59.808C40.784 59.8248 40.786 59.8418 40.7914 59.8577C40.7968 59.8737 40.8054 59.8884 40.8168 59.9008C40.364 60.9017 39.938 61.9168 39.5465 62.934C40.4139 57.9188 41.4814 52.7622 41.3445 47.6835L41.5133 46.9612C42.5999 42.4221 43.3339 37.8501 42.2729 33.2642C44.3354 34.9166 45.5399 37.4009 46.0468 40.0254L46.0532 40.0365ZM40.4023 32.111C40.9359 32.3527 41.4443 32.6461 41.9202 32.9872C43.0894 37.5808 42.3593 42.0952 41.2996 46.604L41.2741 46.1232C40.8191 40.8593 39.0021 35.8069 36.0011 31.4613C37.498 31.2415 39.0256 31.4635 40.3959 32.0999L40.4023 32.111ZM31.4183 34.1701C33.6912 38.3446 35.9669 42.6136 37.038 47.2749C37.9993 51.4635 37.6967 55.7681 37.8747 60.0318C37.7236 59.5903 37.5702 59.1576 37.4128 58.7309C37.6206 55.0459 37.0313 51.3614 35.6849 47.928C34.3385 44.4945 32.2666 41.3927 29.6101 38.8336C29.6857 38.1936 29.8167 37.5612 30.0019 36.9437C30.294 35.9361 30.7722 34.9916 31.4119 34.159L31.4183 34.1701ZM30.1016 43.7815C31.8826 46.4458 33.3258 49.3208 34.3983 52.3409C32.7753 49.5363 30.9904 46.7401 30.0952 43.7704L30.1016 43.7815ZM35.1168 53.6047C33.9261 49.8054 32.159 46.2121 29.8772 42.9498C29.5743 41.7256 29.4697 40.4604 29.5672 39.2023C32.0668 41.6521 34.0313 44.5926 35.3374 47.8392C36.6434 51.0859 37.2628 54.5687 37.1567 58.069C36.9853 57.6245 36.8127 57.1843 36.641 56.7584C36.1945 55.6773 35.685 54.6234 35.1152 53.6019L35.1168 53.6047Z" fill="#C3937C"/>
<path d="M84.6725 56.3796C85.3361 49.053 76.6362 46.4927 70.9135 47.9591C62.0313 50.233 54.8201 57.0769 47.92 62.7134C47.8533 62.7656 47.8039 62.8366 47.7782 62.9172C45.4087 63.886 44.8289 63.5109 42.9333 65.3004C42.4659 65.7366 41.5443 68.1986 42.0117 67.7624C45.7021 64.2823 50.5925 62.3569 55.6621 62.3881C60.1353 62.4306 64.4469 64.1193 68.8307 64.7901C74.987 65.7058 83.9772 64.0943 84.6725 56.3796ZM79.5499 62.4169C79.3219 62.5486 79.0967 62.6786 78.877 62.8054C78.877 62.8054 78.8771 62.8054 78.8508 62.7984C73.4785 63.0411 68.0996 62.5586 62.8599 61.3641C64.6199 61.324 66.3789 61.3141 68.1376 61.3488C72.0813 61.4308 76.0074 61.7263 79.924 62.1788C79.8021 62.2566 79.6774 62.3359 79.5527 62.4153L79.5499 62.4169ZM56.2654 61.4039C56.0377 61.3948 55.8104 61.393 55.5816 61.3883C56.2183 61.0207 56.8801 60.6386 57.5502 60.2517C58.0465 60.3793 58.5201 60.5125 58.9494 60.627C59.6029 60.8043 60.2567 60.9777 60.9107 61.1473C59.3636 61.2074 57.8161 61.2924 56.2681 61.4023L56.2654 61.4039ZM55.5399 59.8262C54.5655 60.3599 53.6187 60.9424 52.703 61.5714C52.415 61.6119 52.1302 61.658 51.8394 61.7002C53.0671 61.0912 54.2868 60.4683 55.4841 59.8067L55.5399 59.8262ZM55.9914 59.902C56.3868 59.9769 56.7743 60.0637 57.1535 60.1554C56.4226 60.5589 55.7215 60.9821 55.0348 61.3786C54.4546 61.3883 53.8749 61.4308 53.2992 61.4933C54.1828 60.924 55.0757 60.39 55.9942 59.9004L55.9914 59.902ZM61.5563 61.0519C60.6251 60.8131 59.3689 60.3774 58.0229 60.0047C62.0004 57.9042 66.6428 56.2555 70.8197 57.2935C74.5078 58.2107 77.6336 60.4656 81.4732 60.8296C81.1013 61.2326 80.6939 61.6015 80.2559 61.9317C74.1387 61.2077 67.9754 60.9352 61.816 61.1164C61.7355 61.0926 61.6467 61.0736 61.5591 61.0503L61.5563 61.0519ZM81.7008 60.5688C77.0482 60.2158 73.2278 56.8091 68.5477 56.6716C64.8984 56.5601 61.0109 58.0652 57.6242 59.8984C57.2534 59.8019 56.883 59.7126 56.5118 59.6348C59.7463 57.9734 63.2506 56.9018 66.8596 56.4704C72.3562 55.8259 77.8127 56.8203 83.1901 57.8381C83.2188 57.8413 83.2477 57.835 83.2725 57.8201C82.9311 58.8277 82.3984 59.7604 81.7036 60.5672L81.7008 60.5688ZM83.3339 57.6183C83.3255 57.605 83.3146 57.5934 83.3017 57.5843C83.2889 57.5753 83.2743 57.5689 83.2589 57.5655C77.8512 56.5466 72.3428 55.5268 66.8193 56.1758C63.0527 56.628 59.4009 57.7724 56.0483 59.5512L55.9874 59.542C56.5435 59.2209 57.0996 58.8998 57.6445 58.5594C60.4832 56.7725 63.2231 54.673 66.4635 53.6525C68.2895 53.3156 70.1516 53.0798 72.011 52.8973C75.9176 52.96 79.8469 54.0893 83.5567 55.1789C83.5567 55.1789 83.5761 55.1676 83.5873 55.1612C83.6555 55.9864 83.5725 56.8174 83.3422 57.6135L83.3339 57.6183ZM59.3271 57.1331C58.052 57.9617 56.7604 58.7297 55.4479 59.4615C54.7993 59.3646 54.1415 59.3412 53.4873 59.3919C54.4434 58.6143 55.4044 57.8451 56.3777 57.0909C59.0223 55.6371 61.8702 54.5887 64.8254 53.9809C62.915 54.8762 61.0816 55.9272 59.3438 57.1235L59.3271 57.1331ZM83.5664 54.8811C80.4828 53.9772 77.2451 53.044 73.9887 52.7205C76.8804 52.4892 79.7405 52.3575 82.4285 52.1588C82.4556 52.1539 82.4802 52.1397 82.498 52.1187C83.0786 52.934 83.4511 53.8789 83.5831 54.8715L83.5664 54.8811ZM82.3325 51.8963C79.1002 52.1282 75.6173 52.2793 72.1195 52.6165C70.5152 52.5684 68.9111 52.7359 67.3504 53.1146C67.0275 53.1975 66.7111 53.2915 66.3994 53.3938C63.4074 53.8989 60.4951 54.7995 57.7394 56.0718C58.4444 55.5464 59.1575 55.0349 59.8785 54.5372C59.8922 54.5584 59.9128 54.5743 59.9369 54.5819C59.9609 54.5896 59.9869 54.5887 60.0104 54.5794C66.4898 52.4395 72.9861 50.3674 79.8252 49.7945C79.8252 49.7945 79.8502 49.78 79.8613 49.7736C80.4805 50.1273 81.0544 50.5545 81.5708 51.0457C81.8471 51.3026 82.1046 51.579 82.3412 51.8728L82.3325 51.8963ZM68.9205 49.657C72.2938 48.3786 76.2496 47.9101 79.461 49.5426C72.9273 50.15 66.6904 52.087 60.4829 54.1329C63.1113 52.314 65.9414 50.8053 68.9165 49.6372L68.9205 49.657ZM53.0211 59.7978C53.6538 59.7069 54.2954 59.6981 54.93 59.7716C53.546 60.5337 52.1412 61.2598 50.7184 61.974C50.5526 62.0142 50.3956 62.0568 50.2274 62.1059C51.1605 61.3206 52.0941 60.5426 53.0281 59.7716L53.0211 59.7978ZM58.1571 61.5984C58.4841 61.5612 58.7531 61.539 58.8589 61.5296C59.8417 61.4725 60.8269 61.4324 61.8125 61.3994C63.1158 61.7303 64.4245 62.0321 65.7553 62.2695C69.8913 62.9882 74.0926 63.2703 78.2899 63.1112C72.0023 65.9686 64.6686 62.4421 58.1642 61.5721L58.1571 61.5984Z" fill="#C3937C"/>
<path d="M59.8427 47.219C60.1963 45.4879 59.0538 45.3711 59.0129 43.7014C59.0872 43.7171 59.1644 43.7124 59.2364 43.6878C59.3084 43.6632 59.3723 43.6196 59.4215 43.5616C64.0292 38.6164 66.5962 32.1208 66.2901 25.3429C66.0958 20.9481 64.2915 11.6522 58.8856 10.6879C51.8204 9.42437 51.6378 20.1077 52.5648 24.3716C54.3988 32.7815 59.4484 39.5049 57.6156 48.5308C57.4732 49.1638 59.7241 47.8421 59.8427 47.219ZM58.9218 42.1567C59.1754 41.6627 59.4102 41.1661 59.6261 40.6668L59.5985 40.9785C59.5519 41.3345 59.493 41.7012 59.4186 42.0732C59.268 42.2489 59.1141 42.4191 58.9575 42.5909L58.9218 42.1567ZM58.1838 37.854C58.3591 37.0725 58.5743 36.3086 58.7959 35.5558C59.4254 36.849 59.7337 38.2751 59.695 39.7138L59.6936 39.7627C59.4473 40.3892 59.172 41.0103 58.8731 41.6228C58.7281 40.3523 58.4978 39.0933 58.1838 37.854ZM58.9501 35.0268C59.1521 34.3556 59.3457 33.6892 59.5158 33.0143C59.7178 34.3488 59.8122 35.6976 59.7981 37.0477C59.7278 36.7983 59.6442 36.5528 59.5477 36.3123C59.3684 35.8797 59.1664 35.4528 58.9533 35.0323L58.9501 35.0268ZM65.3209 26.117C65.3565 29.4607 64.6796 32.7754 63.3352 35.8411C63.8018 29.1237 62.993 22.1813 62.7111 15.4966C63.1025 16.2837 63.4339 17.1017 63.7181 17.825C64.7462 20.4695 65.2891 23.2782 65.3209 26.117ZM61.1144 13.1612C61.6717 13.7437 62.1398 14.4053 62.5037 15.1246C62.4725 15.1275 62.4436 15.1427 62.4235 15.1668C62.4034 15.1909 62.3936 15.222 62.3963 15.2532C62.7003 22.2652 63.5859 29.5589 62.9954 36.5882C62.3544 37.9319 61.5923 39.2146 60.7185 40.4206C65.2538 31.2727 62.4519 20.7818 58.4137 11.8033C59.4454 11.9281 60.4004 12.4083 61.1144 13.1612ZM58.1029 11.7978C62.3113 21.1033 65.2465 32.0755 59.8492 41.4771C59.9678 40.8562 60.0437 40.2281 60.0763 39.5972C61.7475 35.2094 62.1197 30.4368 61.1483 25.8496C60.177 21.2624 57.9031 17.0546 54.5984 13.7287C55.5019 12.4491 56.7819 11.7766 58.1029 11.7978ZM54.2225 14.2785C54.2862 14.1641 54.3591 14.0592 54.4276 13.9531C57.5872 17.1455 59.7893 21.1576 60.7861 25.5376C61.7828 29.9175 61.5345 34.4912 60.0691 38.7436C60.0681 38.6776 60.0555 38.6109 60.0517 38.5465C60.1796 36.4596 60.0547 34.3654 59.6798 32.3095C60.0734 30.7144 60.126 29.055 59.8341 27.4398C58.9702 23.0988 56.1679 19.5294 53.4249 16.1846C53.6248 15.5238 53.8921 14.8851 54.2225 14.2785ZM53.2907 16.5172C56.3034 20.1943 59.4333 24.2734 59.7571 29.2072C59.8118 30.1077 59.7521 31.0118 59.5793 31.8979C59.5385 31.7181 59.5121 31.5374 59.4641 31.3581C58.4482 27.3896 55.9087 24.2046 53.0567 21.3774C53.0448 21.3656 53.0305 21.3563 53.0148 21.3501C52.9992 21.3439 52.9824 21.3409 52.9655 21.3414C52.7732 19.7244 52.8883 18.085 53.3046 16.5092L53.2907 16.5172ZM53.013 21.7318C55.9936 24.7176 58.5823 28.1034 59.3946 32.3485L59.4328 32.5815C59.2609 33.3241 59.0412 34.0609 58.8096 34.7899C57.6662 32.5847 56.1271 30.4711 54.7773 28.4479C53.9418 26.2801 53.3546 24.0244 53.0268 21.7238L53.013 21.7318ZM55.2609 29.6771C56.3984 31.4162 57.5285 33.1744 58.5099 34.9963C58.5675 35.0961 58.6021 35.1945 58.6477 35.2864C58.4323 35.9728 58.2105 36.648 58.0305 37.3509C57.6348 35.898 57.1584 34.4685 56.6036 33.0688C56.2041 31.998 55.7344 30.8568 55.2748 29.6691L55.2609 29.6771Z" fill="#C3937C"/>
<path d="M74.5784 35.9421C75.4071 34.6613 74.3161 34.3706 74.9224 32.9742C74.9866 32.9517 75.046 32.9174 75.0976 32.8731C78.2148 30.0773 81.0946 27.0284 83.7074 23.7576C85.4162 21.5804 86.9764 19.1971 87.3361 16.3976C87.8413 12.4567 85.6296 5.73637 80.8585 5.42218C75.4706 5.07965 74.4796 11.4602 75.1615 15.396C75.9351 19.8631 76.1666 24.059 75.3506 28.1165C74.8798 29.0287 74.6113 30.0312 74.5635 31.0555C73.9082 32.9762 73.0177 34.8092 71.9123 36.5126C71.5627 37.0436 74.2319 36.4786 74.5784 35.9421ZM80.0883 22.305C80.2628 22.1192 80.4492 21.9413 80.6297 21.7595C80.2596 22.7983 79.8254 23.8133 79.3296 24.7987L79.2591 24.8949C79.4045 24.2157 79.5065 23.5319 79.5903 22.8551C79.7524 22.6543 79.9289 22.4784 80.0883 22.305ZM86.299 16.5342C86.2834 16.6356 86.2635 16.7359 86.2435 16.8361C86.2214 16.8354 86.1996 16.8409 86.1804 16.852C86.1612 16.8631 86.1456 16.8792 86.1351 16.8987C84.207 20.7959 81.1007 23.8723 78.5476 27.3355C78.6832 26.9282 78.8334 26.5013 78.9399 26.0886C79.1508 25.7154 79.3545 25.3427 79.5463 24.9621C80.7652 23.3322 81.8148 21.5828 82.6786 19.741C83.872 18.6489 85.0831 17.5874 86.299 16.5342ZM83.0134 19.0559C84.2116 16.3183 84.9965 13.4192 85.3426 10.4534C86.215 12.2028 86.5653 14.1668 86.3518 16.1118C85.2331 17.083 84.1117 18.0558 83.0134 19.0559ZM76.3927 28.5537C77.1461 27.8249 77.8614 27.0578 78.5357 26.2554C77.8119 27.4926 76.9885 28.6692 76.0735 29.7733C76.1892 29.37 76.2945 28.9617 76.3927 28.5537ZM80.2478 23.4996C80.567 22.7681 80.8519 22.0416 81.0978 21.2859C81.4357 20.9466 81.778 20.6085 82.128 20.2771C81.5691 21.3892 80.9412 22.4655 80.2478 23.4996ZM78.8346 25.4247C78.1091 26.3445 77.3304 27.2212 76.5024 28.0504C76.5926 27.6286 76.6799 27.2085 76.7562 26.7947C77.1805 26.0913 77.6131 25.3572 77.9954 24.6004C78.4132 24.104 78.8383 23.6331 79.2531 23.1829C79.1583 23.9385 79.0191 24.6879 78.8362 25.4274L78.8346 25.4247ZM75.8518 30.4744C76.7527 29.4407 77.5735 28.3401 78.3071 27.1822C78.1588 27.5674 78.0072 27.947 77.8524 28.321C77.5253 28.7946 77.2073 29.2777 76.9101 29.771C76.505 30.1675 76.1028 30.5624 75.693 30.9506L75.8518 30.4744ZM81.0659 25.3788C80.0846 26.511 79.0666 27.6052 78.0183 28.6726L78.1199 28.4439C80.646 24.7671 83.9324 21.6237 86.0628 17.6725L86.0479 17.7366C85.1936 20.6811 83.0065 23.1343 81.0547 25.3852L81.0659 25.3788ZM85.1163 10.0036C84.7754 13.3118 83.8832 16.5412 82.4766 19.5581C82.0747 19.9344 81.68 20.3101 81.2801 20.6963C82.6462 16.2218 82.8113 11.47 81.7589 6.91736C81.7493 6.90072 81.7429 6.88966 81.7349 6.87579C82.7881 7.25718 83.7019 7.94529 84.3584 8.85134C84.6326 9.22066 84.8821 9.60774 85.1052 10.01L85.1163 10.0036ZM81.5783 6.8294C81.5465 6.83974 81.5198 6.86174 81.5037 6.89099C81.4875 6.92024 81.4831 6.95451 81.4913 6.98684C82.574 11.6566 82.3596 16.5358 80.8711 21.0988C80.4558 21.5161 80.0497 21.9428 79.6496 22.3734C80.0669 17.6255 78.9362 12.7324 77.3025 8.13706C77.802 7.51875 78.4756 7.0641 79.2361 6.83208C79.9965 6.60006 80.8086 6.60136 81.5672 6.8358L81.5783 6.8294ZM76.9747 25.234C77.1406 23.2311 77.0841 21.2166 76.8061 19.2271C76.4471 16.1845 75.1998 12.8746 76.3093 9.87143C76.501 9.34755 76.7661 8.85336 77.0969 8.4037C78.7239 13.0325 79.8309 17.9615 79.32 22.7338C79.0151 23.0725 78.7134 23.4168 78.4304 23.7614C78.8508 22.8946 79.138 21.9696 79.2822 21.0179C79.5963 18.5183 77.6567 16.0001 76.2482 14.1512C76.1391 14.0072 75.8789 14.1537 76.0008 14.2941C77.8453 16.712 79.6179 19.2749 78.535 22.4143C78.2059 23.3349 77.8079 24.2296 77.3443 25.0908C77.2052 25.2673 77.0666 25.4509 76.9195 25.6393C76.9235 25.5113 76.9517 25.3804 76.9636 25.2404L76.9747 25.234Z" fill="#C3937C"/>
<path d="M106.196 42.7774C107.124 40.5331 106.674 38.0645 105.293 36.1221C103.32 33.3461 100.474 32.3788 97.2216 31.9532C88.8934 30.8458 81.5006 35.6095 74.2708 38.9924C74.2514 39.0015 74.2328 39.0123 74.2151 39.0245C72.4764 38.8896 72.4541 38.0484 70.7203 37.9477C70.0798 37.9107 68.3604 39.6392 68.9968 39.6821C78.2357 40.2157 86.9658 41.1649 95.3256 45.345C99.2628 47.3164 104.187 47.6714 106.196 42.7774ZM104.278 36.3865C99.5613 35.113 94.6563 35.9152 89.8667 36.3844C87.1324 36.6505 83.6247 36.5275 80.7526 37.4796C80.0596 37.5891 79.3734 37.7384 78.6974 37.9267C78.9834 37.78 79.2528 37.643 79.5349 37.5023C82.2229 36.5974 85.1774 36.3595 87.9144 35.6999C91.1163 34.9272 94.2646 33.9525 97.4113 32.975C100.056 33.3374 102.655 34.2881 104.273 36.3897L104.278 36.3865ZM96.7185 32.8796C93.4517 33.8931 90.1754 34.8899 86.8434 35.649C84.8574 36.1005 82.8008 36.3525 80.8523 36.8305C85.3083 34.6276 89.9361 32.6581 94.8715 32.7628C95.4761 32.7761 96.095 32.8144 96.7185 32.8796ZM77.2698 38.6326C77.981 38.4068 78.6979 38.2037 79.4185 38.0391C79.3295 38.0905 79.2377 38.1434 79.1404 38.1996C78.5534 38.2799 77.9963 38.5086 77.5221 38.8641C77.4832 38.8865 77.447 38.9074 77.4109 38.9283C77.3892 38.9403 77.3716 38.9586 77.3606 38.9808C77.3496 39.0031 77.3456 39.0281 77.3492 39.0526C77.3244 39.0795 77.3011 39.1077 77.2795 39.1373C77.1097 39.1835 76.9415 39.2325 76.7761 39.28C76.5679 39.2597 76.3581 39.2366 76.1471 39.218C76.5185 39.0072 76.8928 38.8207 77.2698 38.6326ZM77.6362 39.3121L77.6501 39.3041C77.645 39.3059 77.6403 39.3086 77.6362 39.3121ZM78.2691 39.1242C78.9737 38.9318 79.6958 38.7441 80.4298 38.5644C81.0236 38.615 81.6105 38.7258 82.1816 38.8951C81.6122 39.1293 81.0558 39.3937 80.5147 39.6874C79.672 39.5676 78.8267 39.4628 77.9791 39.373C78.062 39.2918 78.1592 39.2098 78.2608 39.129L78.2691 39.1242ZM82.6178 39.0278C83.9058 39.4821 85.1442 40.0652 86.3142 40.7684C84.5642 40.3443 82.7909 40.0148 81.0108 39.7633C81.5303 39.4914 82.0639 39.2475 82.6094 39.0326L82.6178 39.0278ZM88.4579 41.335C88.0731 41.2207 87.6868 41.1295 87.3012 41.0268C85.9505 40.1675 84.5167 39.4458 83.0212 38.8725C83.8533 38.5683 84.7086 38.3317 85.5786 38.1651C85.8208 38.2507 86.0567 38.3511 86.3046 38.4594C88.7267 39.5789 90.9273 41.2329 92.9203 43.0475C91.4751 42.3675 89.9807 41.7967 88.4496 41.3399L88.4579 41.335ZM82.6045 38.7286C82.1485 38.5795 81.6823 38.4632 81.2096 38.3804C81.4224 38.3315 81.6351 38.2826 81.8634 38.2285C83.1529 38.0348 84.2708 37.9034 84.4101 37.9006C84.5493 37.8978 84.5856 37.9028 84.6704 37.9019C84.7551 37.901 84.9093 37.9562 85.0248 37.9893C84.1977 38.1756 83.3858 38.4244 82.5961 38.7335L82.6045 38.7286ZM82.8519 37.7317C82.4318 37.7746 82.0077 37.8235 81.5888 37.8878C81.17 37.9522 80.6341 37.9806 80.0675 38.0267C80.2666 37.9413 80.4673 37.8587 80.67 37.7861C81.4772 37.6584 82.2957 37.6185 83.1112 37.667C83.0253 37.6981 82.933 37.7181 82.8435 37.7365L82.8519 37.7317ZM95.8266 44.479C95.1421 44.1347 94.4521 43.7936 93.7538 43.4573C91.5245 41.317 88.9186 39.2241 86.0964 38.0731C86.2316 38.0505 86.3701 38.0334 86.5041 38.0152C88.1328 38.2272 89.7198 38.6819 91.2125 39.3638C94.8668 40.9994 98.2703 43.3306 101.517 45.6528C101.667 45.7585 101.806 45.5117 101.66 45.4072C97.5407 42.4393 92.8208 38.9197 87.7231 37.8919C93.5473 37.5389 99.3161 40.172 104.153 43.8051C104.298 43.914 104.443 43.664 104.294 43.5611C99.0712 39.6516 92.8321 36.9166 86.574 37.7124C86.0312 37.6527 85.4857 37.6208 84.9396 37.617C92.19 36.3888 99.9756 36.582 105.347 41.2748C105.483 41.3956 105.675 41.2002 105.546 41.0745C99.9054 36.1456 91.6869 36.0952 84.1432 37.4705C83.4968 37.3599 82.8405 37.3163 82.1848 37.3404C85.4205 36.5814 89.2379 36.7142 91.9948 36.4424C96.2039 36.0273 100.365 35.529 104.491 36.7108C104.491 36.7108 104.511 36.6996 104.522 36.6932C104.734 37.0017 104.921 37.3262 105.082 37.6637C105.684 38.8868 105.832 40.2843 105.499 41.6081C105.167 42.9319 104.375 44.0962 103.266 44.8943C100.743 46.669 98.2829 45.7155 95.8182 44.4838L95.8266 44.479Z" fill="#C3937C"/>
<path d="M91.674 26.3641C96.1527 22.2551 100.224 17.6269 104.218 13.0508C107.036 9.82699 110.802 3.26389 104.923 0.786784C100.062 -1.25013 95.6748 3.39014 94.927 7.87408C94.1224 12.6127 95.4067 17.6945 94.1736 22.3588C94.1589 22.4211 94.1559 22.4855 94.1647 22.5488C93.1231 23.6086 89.5614 26.0569 88.4692 27.0609C87.9966 27.5075 91.2007 26.7964 91.674 26.3641ZM100.3 15.9672C99.2555 17.1177 98.2115 18.2824 97.153 19.4222C97.3917 18.9193 97.5441 18.3801 97.6039 17.8272C97.7176 17.6839 97.8314 17.5406 97.9435 17.3945C99.2807 16.0919 100.498 14.6724 101.582 13.153C102.833 12.0058 104.154 10.9289 105.479 9.85324C105.238 10.2524 104.974 10.6363 104.685 11.0027C103.307 12.7118 101.771 14.3272 100.3 15.9672ZM95.5863 19.6945L95.6043 19.4623C95.6892 19.3911 95.7785 19.321 95.8551 19.2546C95.8757 19.2654 95.899 19.2703 95.9223 19.2686C95.9456 19.267 95.9679 19.2588 95.9868 19.2451C95.9707 19.2678 95.9558 19.2912 95.9421 19.3153C95.8267 19.43 95.7033 19.5567 95.5815 19.6862L95.5863 19.6945ZM96.0898 8.09011C97.0968 9.93048 98.3498 12.4348 97.8364 14.602C97.7378 14.9966 97.6057 15.3821 97.4414 15.7544C97.121 14.5289 96.5086 13.3997 95.6561 12.463C95.6897 10.9968 95.8346 9.53493 96.0898 8.09011ZM97.3264 16.7044C97.3428 16.8896 97.3499 17.0756 97.3477 17.2615C97.2197 17.4315 97.0874 17.6004 96.9654 17.7744C96.7386 18.0236 96.5379 18.254 96.3174 18.4886C96.1956 18.5922 96.0698 18.7018 95.9591 18.799C96.4244 18.1653 96.8531 17.5055 97.2428 16.823C97.2761 16.7779 97.3026 16.7403 97.3319 16.7012L97.3264 16.7044ZM99.3789 15.3087C99.6684 15.0011 99.9638 14.6974 100.264 14.3948C99.8639 14.8968 99.448 15.3834 99.0157 15.8548C99.1445 15.6732 99.2549 15.4986 99.3844 15.3055L99.3789 15.3087ZM105.832 9.19427C104.612 10.1688 103.401 11.1529 102.232 12.1789C104.057 9.38264 105.423 6.31353 106.278 3.08818C107.362 4.70278 106.893 7.14717 105.838 9.19107L105.832 9.19427ZM106.062 2.79848C105.123 6.44604 103.525 9.8933 101.347 12.9708C100.893 13.3846 100.446 13.8124 100.012 14.248C102.214 10.3373 103.418 5.94685 103.517 1.46553C104.497 1.59744 105.4 2.06785 106.068 2.79526L106.062 2.79848ZM103.154 1.4016L103.236 1.4166C103.146 5.72173 102.025 9.94509 99.9674 13.734C100.25 13.111 100.484 12.4676 100.669 11.8093C101.581 8.4837 101.362 4.80243 101.443 1.37977C102.014 1.31623 102.59 1.3225 103.159 1.39838L103.154 1.4016ZM101.15 1.41201C101.081 4.54687 101.228 7.85939 100.588 10.9243C100.17 12.8135 99.3677 14.5978 98.232 16.1668C98.0234 16.4092 97.8181 16.6572 97.6108 16.8952C97.6006 16.7108 97.5811 16.5271 97.5524 16.3447C98.498 14.9003 99.2561 13.3239 99.4895 11.6733C99.8799 8.90779 98.8168 5.72446 98.1825 3.05893C98.9489 2.17551 100.006 1.59417 101.162 1.41992L101.15 1.41201ZM97.9681 3.34905C98.5661 5.83594 99.4231 8.69455 99.2241 11.2201C99.0886 12.531 98.6865 13.8011 98.0425 14.9526C98.1269 14.6635 98.1869 14.3679 98.2219 14.0689C98.445 11.9768 97.291 9.68895 96.3153 7.91557C96.3075 7.89923 96.2963 7.88478 96.2824 7.87321C96.2685 7.86164 96.2522 7.85324 96.2347 7.84858C96.2172 7.84392 96.1989 7.8431 96.1811 7.8462C96.1632 7.8493 96.1462 7.85622 96.1313 7.86652C96.4671 6.17519 97.0309 4.54459 97.9737 3.34584L97.9681 3.34905ZM95.6451 12.8871C96.4477 13.8295 97.0001 14.9585 97.2518 16.1707C97.1668 16.3381 97.0778 16.5115 97.0004 16.6856C96.5654 17.3065 96.1106 17.9055 95.6476 18.4649C95.6983 16.6905 95.6195 14.8911 95.6474 13.1927L95.6451 12.8871ZM95.4767 20.7117C95.6952 20.2898 95.9272 19.8761 96.1726 19.4706C96.5418 19.0763 96.9023 18.6796 97.2396 18.2557C97.011 19.3165 96.4265 20.2684 95.5829 20.9535C95.5601 20.9713 95.545 20.9972 95.5408 21.0259C95.5366 21.0545 95.5436 21.0835 95.5604 21.1071L95.3993 21.2777C95.4369 21.0859 95.4574 20.8966 95.4822 20.7085L95.4767 20.7117Z" fill="#C3937C"/>
<path d="M126.526 31.9755C125.295 26.8775 119.048 24.8018 114.51 24.4935C106.083 23.9089 104.276 22.7447 100.782 23.0687C100.149 23.1275 97.8437 24.9464 98.4958 24.8879C100.529 24.7295 102.569 24.6748 104.607 24.724C104.652 24.805 104.72 24.8701 104.804 24.91C110.901 27.8747 112.877 35.7592 119.283 38.1424C123.598 39.7476 127.657 36.6646 126.526 31.9755ZM117.565 32.2833C116.913 31.4365 116.203 30.6358 115.44 29.8869C114.837 29.2921 114.214 28.746 113.556 28.1905C114.278 28.2985 115.009 28.383 115.745 28.4314L115.977 28.5048C119.951 29.7964 124.499 31.3486 125.205 36.058C125.022 36.3176 124.803 36.5491 124.553 36.7452C123.012 34.2815 120.24 33.5968 117.744 32.3614L117.565 32.2833ZM108.257 26.0181L108.449 26.081C108.766 26.3908 109.081 26.6859 109.394 26.9663C109.338 26.9468 109.28 26.936 109.226 26.9192C108.913 26.6082 108.592 26.3091 108.257 26.0181ZM108.599 24.8891C109.09 25.2266 109.583 25.5668 110.072 25.913C109.068 25.5725 108.07 25.187 107.066 24.802C107.576 24.8253 108.087 24.8544 108.599 24.8891ZM107.079 25.1083C108.044 25.4944 109.014 25.8915 110.018 26.2292L107.602 25.4869C107.43 25.3567 107.255 25.2325 107.079 25.1083ZM109.084 26.2877L111.79 27.1615C112.007 27.3249 112.222 27.4854 112.443 27.6499C111.631 27.5201 110.826 27.3494 110.031 27.1385C109.706 26.8641 109.393 26.5789 109.084 26.2877ZM112.567 27.4155L113.936 27.8601C113.618 27.8221 113.298 27.7886 112.979 27.7435L112.567 27.4155ZM113.013 28.1161C114.295 29.1322 115.48 30.2649 116.553 31.4997C116.672 31.6417 116.785 31.7869 116.896 31.9337C114.623 30.7183 112.488 29.2606 110.53 27.5859C111.351 27.7999 112.178 27.9766 113.013 28.1161ZM125.418 35.6948C124.79 32.3973 122.158 30.4969 119.12 29.2816C118.433 29.0092 117.735 28.7505 117.033 28.4977C119.719 28.5847 122.49 28.5819 124.527 30.3636C125.606 32.0446 126.202 34.144 125.418 35.6948ZM123.962 29.6029C122.662 28.7637 121.122 28.4143 119.47 28.2885C118.172 28.1912 116.909 28.122 115.658 28.0233C114.346 27.5752 113.021 27.1538 111.694 26.744C112.34 26.9167 112.999 27.042 113.664 27.1188C116.338 27.4234 118.975 26.9551 121.597 27.6446C121.872 27.8 122.15 27.961 122.41 28.1404C122.998 28.5474 123.521 29.0404 123.962 29.6029ZM120.61 27.1422C118.771 26.8398 116.924 26.9598 115.033 26.9089C113.643 26.8527 112.267 26.6114 110.941 26.1914C110.348 25.7612 109.75 25.3413 109.15 24.9258L109.814 24.9713C113.384 25.2398 117.293 25.5894 120.61 27.1422ZM112.269 30.4495C113.386 31.0532 114.429 31.7832 115.379 32.625C116.559 33.7185 117.359 35.072 118.084 36.4831C116.928 35.7027 115.877 34.7776 114.956 33.7303C114.008 32.6657 113.137 31.5491 112.269 30.4495ZM118.546 36.7563C116.897 33.5413 114.86 31.6563 111.826 29.8881C111.118 29.0026 110.394 28.1268 109.628 27.3267C109.71 27.3533 109.793 27.3754 109.877 27.3976C111.5 28.8422 113.252 30.1348 115.113 31.259C115.773 31.6443 116.455 31.9914 117.155 32.2983C118.335 34.0276 119.163 36.2191 120.677 37.5964C119.926 37.4307 119.207 37.1472 118.546 36.7563ZM123.045 37.4862C122.455 37.6683 121.834 37.7287 121.22 37.6637C119.776 36.5491 119.222 34.6911 118.241 33.2166C118.09 32.9933 117.932 32.7776 117.774 32.5619C120.261 33.6588 122.957 34.7457 124.299 36.9029C123.915 37.1622 123.496 37.3634 123.053 37.5L123.045 37.4862Z" fill="#C3937C"/>
<path d="M142.705 31.6815C144.738 28.1009 140.907 24.9001 138.129 23.4277C133.821 21.1489 129.269 20.4869 124.472 20.058C124.39 20.0513 124.308 20.0667 124.235 20.1026C122.928 19.3298 121.489 18.7632 119.979 18.8182C119.34 18.8428 117.461 19.9984 118.102 19.9721C120.989 19.8689 125.476 22.022 127.468 23.7706C129.901 25.9042 131.696 28.4543 133.866 30.7992C135.979 33.0801 140.626 35.3555 142.705 31.6815ZM135.245 30.8125L134.772 30.3462C133.83 28.8564 132.811 27.4171 131.719 26.0343C132.5 26.5334 133.281 27.0325 134.06 27.5218L134.775 27.9446C135.87 29.3453 136.852 30.8308 137.711 32.3872C137.717 32.3975 137.725 32.4066 137.734 32.4139C137.743 32.4212 137.754 32.4266 137.765 32.4298C136.822 32.0725 135.965 31.5203 135.25 30.8093L135.245 30.8125ZM127.378 22.4139L127.406 22.3978C127.81 22.5641 128.215 22.7331 128.621 22.8905C129.192 23.4949 129.749 24.114 130.29 24.7479C129.787 24.4212 129.29 24.087 128.795 23.7627C128.352 23.3084 127.884 22.8624 127.392 22.4245L127.378 22.4139ZM127.928 21.4013C127.934 21.422 127.945 21.441 127.96 21.4568C128.248 21.6602 128.522 21.8717 128.811 22.0966C128.678 22.0962 128.54 22.1017 128.406 22.1013L128.137 21.9871C127.927 21.7717 127.713 21.5623 127.498 21.3501L127.928 21.4013ZM142.032 30.6175C140.925 28.7843 139.556 27.1237 137.966 25.6884C139.757 26.3512 141.265 27.3959 142.122 29.5741C142.153 29.9272 142.127 30.2829 142.045 30.6281L142.032 30.6175ZM141.907 30.9739C141.675 31.5183 141.253 31.9604 140.72 32.2177C139.259 28.8204 136.209 26.2594 132.811 24.2982C133.172 24.3967 133.53 24.504 133.898 24.5949C135.071 24.8864 136.227 25.1287 137.305 25.4676C139.14 27.0377 140.702 28.9001 141.929 30.9797L141.907 30.9739ZM130.97 23.2982L130.447 23.0345C130.189 22.8134 129.948 22.6085 129.694 22.4045C131.694 22.4918 133.642 22.8866 135.402 24.0221C135.764 24.2569 136.126 24.5176 136.486 24.7942C134.663 24.2639 132.811 23.8173 130.983 23.3089L130.97 23.2982ZM128.665 22.5175L129.12 22.7208L128.726 22.5784L128.665 22.5175ZM129.431 22.5597L129.062 22.4028C129.114 22.4025 129.165 22.4066 129.218 22.4091C129.299 22.4587 129.376 22.5099 129.447 22.5688L129.431 22.5597ZM127.045 21.2974L127.445 21.695C127.037 21.5275 126.635 21.3641 126.239 21.2117L127.045 21.2974ZM127.719 22.1175L127.472 22.1268C127.294 22.0559 127.115 21.9893 126.935 21.9156C126.914 21.9064 126.891 21.9024 126.868 21.904C126.845 21.9057 126.823 21.9129 126.803 21.9251C126.652 21.798 126.497 21.6768 126.341 21.5557C126.805 21.7417 127.269 21.932 127.735 22.1265L127.719 22.1175ZM130.954 25.5513C131.929 26.7449 132.853 27.9788 133.716 29.2624C132.327 27.7684 131.059 26.2009 129.684 24.706C130.124 24.9992 130.545 25.2849 130.971 25.5604L130.954 25.5513ZM131.081 25.2565C130.483 24.5294 129.863 23.819 129.22 23.1253C129.728 23.3124 130.238 23.4951 130.753 23.6675C131.973 24.747 133.11 25.9175 134.153 27.1688C133.143 26.5429 132.117 25.908 131.097 25.2656L131.081 25.2565ZM131.394 23.8737L131.554 23.9257C135.345 25.9447 138.89 28.6563 140.461 32.3411C140.383 32.3861 140.278 32.4026 140.183 32.4313C139.519 30.8255 138.314 29.7652 136.781 28.7981C136.166 28.4137 135.545 28.0325 134.925 27.6513C133.855 26.3056 132.681 25.0464 131.412 23.8855L131.394 23.8737ZM135.692 23.3413C137.626 24.1805 139.866 25.2235 141.14 26.9471C141.484 27.4179 141.749 27.9418 141.924 28.4982C141.119 26.9975 139.769 25.8627 138.15 25.3269C137.828 25.2175 137.505 25.1151 137.183 25.0128C136.656 24.5746 136.107 24.1636 135.538 23.7813C133.644 22.5234 131.493 22.1567 129.299 22.107C129.022 21.8971 128.743 21.6889 128.458 21.4838C130.949 21.7722 133.389 22.4002 135.708 23.3503L135.692 23.3413ZM139.283 32.6113C138.799 32.6473 138.313 32.5872 137.853 32.4345C137.878 32.4355 137.902 32.4298 137.924 32.4182C137.946 32.4066 137.964 32.3894 137.977 32.3684C137.99 32.3475 137.997 32.3234 137.997 32.2989C137.997 32.2743 137.991 32.25 137.979 32.2287C137.218 30.8606 136.361 29.5479 135.415 28.3003C137.255 29.3749 139.05 30.5126 139.902 32.516C139.703 32.562 139.502 32.5968 139.299 32.6203L139.283 32.6113Z" fill="#C3937C"/>
<path d="M117.734 15.7773C120.028 14.3452 122.802 12.9987 124.695 11.0184C126.41 9.21127 128.892 4.37303 126.319 2.2724C123.496 -0.00964676 118.664 2.56934 117.328 5.36675C115.554 9.08665 115.575 13.4776 113.508 17.1594C113.508 17.1594 113.5 17.1901 113.494 17.2048C112.115 18.0269 110.713 18.8475 109.298 19.6272C108.742 19.9483 110.383 20.7868 110.942 20.4713C113.629 18.9937 115.119 17.4127 117.734 15.7773ZM115.412 15.6723C115.676 15.2734 115.953 14.8751 116.245 14.4774C116.629 14.2558 117.013 14.0343 117.396 13.8128C117.193 14.2135 116.957 14.5971 116.691 14.9597C116.275 15.2119 115.849 15.4494 115.412 15.6723ZM115.625 14.8612L115.638 14.8317L115.655 14.8221C115.655 14.8221 115.633 14.8492 115.625 14.8612ZM117.909 14.1417C117.706 14.2919 117.498 14.431 117.289 14.5701C117.494 14.2399 117.677 13.8968 117.838 13.5432C118.213 13.3265 118.588 13.1098 118.935 12.8761C118.625 13.3225 118.282 13.7456 117.909 14.1417ZM119.509 12.5153C119.839 12.3028 120.17 12.0859 120.492 11.8667C120.015 12.3709 119.511 12.8483 118.982 13.2967C119.17 13.0403 119.346 12.7798 119.509 12.5153ZM118.027 13.101C118.241 12.567 118.42 12.02 118.565 11.4634C119.386 10.4271 120.202 9.38681 120.967 8.31663C120.614 9.72431 120.053 11.0718 119.301 12.3141C118.884 12.5808 118.458 12.8451 118.027 13.101ZM117.616 13.3386C117.299 13.5216 116.982 13.7046 116.665 13.8876C117.13 13.2491 117.619 12.6379 118.107 12.0196C117.975 12.4753 117.815 12.9223 117.627 13.358L117.616 13.3386ZM125.319 8.48415C124.089 10.6737 121.981 11.8906 119.929 13.2044C119.305 13.6057 118.677 14.0015 118.049 14.3973C118.064 14.3904 118.078 14.3824 118.091 14.3732C119.372 13.442 120.529 12.3506 121.532 11.1256C123.437 9.68582 125.107 7.99334 126.26 5.77839C126.122 6.73282 125.804 7.65286 125.323 8.4897L125.319 8.48415ZM126.291 5.20952C126.269 5.20846 126.248 5.21365 126.229 5.22447C126.21 5.23529 126.195 5.25128 126.185 5.27052C125.237 7.17005 123.888 8.84292 122.232 10.1742C123.767 8.03936 124.836 5.60708 125.369 3.03524C125.683 3.30143 125.929 3.637 126.09 4.01538C126.25 4.39376 126.32 4.80455 126.294 5.21507L126.291 5.20952ZM124.597 2.60876C124.779 2.67888 124.955 2.76722 125.12 2.87247C124.526 5.82508 123.217 8.5891 121.307 10.9226C120.83 11.2834 120.335 11.6279 119.832 11.963C120.556 10.6199 121.085 9.1805 121.401 7.68867C122.52 6.10486 123.415 4.37509 124.061 2.5482C124.07 2.52016 124.067 2.48991 124.053 2.46396C124.24 2.49619 124.423 2.54653 124.6 2.61428L124.597 2.60876ZM123.824 2.43346C123.808 2.44309 123.794 2.45111 123.787 2.47738C123.235 4.06111 122.487 5.56993 121.56 6.96844C121.816 5.54317 121.96 4.10035 121.99 2.6532C122.58 2.44906 123.207 2.37596 123.828 2.43901L123.824 2.43346ZM121.694 2.76892C121.657 4.38775 121.471 6.00012 121.138 7.58562C120.382 8.69112 119.56 9.75764 118.727 10.8262C119.2 8.7045 119.345 6.43919 119.623 4.44853C119.627 4.42323 119.624 4.39748 119.615 4.37357C119.606 4.34965 119.591 4.32832 119.572 4.31155C119.553 4.29478 119.53 4.28307 119.505 4.27748C119.48 4.27189 119.454 4.27259 119.429 4.27952C120.082 3.63796 120.852 3.12706 121.697 2.77447L121.694 2.76892ZM117.195 9.54757C117.493 8.43272 117.679 7.17543 118.108 6.10714C118.403 5.44087 118.827 4.83928 119.355 4.33718L119.336 4.34841C119.033 6.50851 118.902 9.03566 118.3 11.3202C117.533 12.2843 116.768 13.2512 116.043 14.2428L115.765 14.4034C116.342 12.8208 116.772 11.1639 117.192 9.54202L117.195 9.54757ZM115.096 16.1466C115.385 16.0055 115.671 15.8588 115.952 15.7039C115.649 15.8788 115.355 16.0748 115.056 16.2581L115.096 16.1466Z" fill="#C3937C"/>
<path d="M130.056 16.5603C134.009 15.8939 137.84 13.8225 140.996 11.4163C142.971 9.90613 146.304 7.12454 146.047 4.25222C145.694 0.35947 140.787 1.04395 138.69 2.86877C136.695 4.60836 135.567 7.22652 134.257 9.4654C133.351 11.0883 132.292 12.6218 131.096 14.0452C130.995 14.103 130.884 14.1414 130.779 14.1837C130.673 14.226 130.698 14.3451 130.773 14.4051C129.758 15.4977 126.536 16.441 125.148 17.1832C124.581 17.4849 127.142 18.3575 127.707 18.0575C128.5 17.6326 129.249 17.1295 129.943 16.5558C129.98 16.5617 130.018 16.5632 130.056 16.5603ZM144.38 3.4842C141.476 7.4342 137.712 10.6747 133.372 12.9602C135.192 11.1761 136.771 9.16293 138.07 6.97166C139.805 5.39767 141.691 3.99909 143.701 2.79652C143.963 2.97487 144.187 3.20437 144.358 3.47123L144.38 3.4842ZM132.653 13.7376L132.771 13.5883C132.943 13.4888 133.127 13.4086 133.299 13.3163C133.069 13.4566 132.853 13.5962 132.637 13.7357L132.653 13.7376ZM144.531 3.75203C144.693 4.10617 144.78 4.49052 144.786 4.88047C143.39 6.02122 141.977 7.13201 140.544 8.21283C141.999 6.84655 143.327 5.353 144.515 3.75013L144.531 3.75203ZM133.824 12.0928C134.109 11.6572 134.389 11.2133 134.664 10.7611C134.744 10.6299 134.818 10.4948 134.899 10.3592C135.518 9.63242 136.129 8.88739 136.803 8.19885C136.952 8.0462 137.104 7.89908 137.252 7.75081C136.245 9.30353 135.092 10.7569 133.808 12.0909L133.824 12.0928ZM131.492 15.1176C131.511 15.1296 131.533 15.1361 131.555 15.1363C131.578 15.1364 131.6 15.1303 131.619 15.1185C135.678 12.6197 139.736 10.1201 143.794 7.61949C142.883 8.88523 141.467 10.0096 140.111 10.9364C137.495 12.1181 134.948 13.4479 132.483 14.9193C132.112 15.041 131.741 15.1512 131.367 15.253C131.38 15.212 131.422 15.1693 131.465 15.1221L131.492 15.1176ZM134.013 14.3463C135.443 13.5355 136.898 12.7705 138.378 12.0514C138.212 12.1477 138.053 12.2392 137.9 12.3275C136.644 13.1 135.331 13.7785 133.975 14.3573L134.013 14.3463ZM144.176 7.05502L132.011 14.5448L132.117 14.4206C136.518 11.6095 140.753 8.54697 144.801 5.2484C144.779 5.4942 144.733 5.73734 144.665 5.97446C144.534 6.3581 144.357 6.72461 144.138 7.06596L144.176 7.05502ZM141.365 2.45551C142.059 2.24417 142.806 2.301 143.459 2.61467C141.728 3.65792 140.088 4.84473 138.556 6.16254C139.102 5.18182 139.614 4.14286 140.098 3.05399C140.475 2.79567 140.889 2.59748 141.327 2.46648L141.365 2.45551ZM137.663 5.67596C138.206 4.82051 138.871 4.04831 139.636 3.38368C139.114 4.54247 138.528 5.67179 137.882 6.76646C137.71 6.92481 137.538 7.08315 137.368 7.24426C136.758 7.83269 136.191 8.45584 135.642 9.09082C136.246 7.94723 136.886 6.78276 137.625 5.68689L137.663 5.67596Z" fill="#C3937C"/>
<path d="M148.302 16.911C151.793 16.9145 164.791 13.5695 160.034 7.69372C158.201 5.4244 155.436 6.99146 153.843 8.63182C151.001 11.5557 148.862 16.8209 144.301 17.4684C143.667 17.5574 143.923 18.515 144.551 18.4335C145.836 18.2179 147.045 17.6776 148.064 16.8639C148.138 16.8991 148.22 16.9153 148.302 16.911ZM158.948 11.8223C156.42 13.2815 153.859 14.6308 151.009 15.2557C151.3 14.9795 151.576 14.6881 151.836 14.3826C152.315 14.062 152.8 13.7525 153.281 13.4374C153.281 13.4374 153.315 13.444 153.334 13.4327C155.154 12.3331 157.177 11.6105 159.281 11.3081C159.177 11.4868 159.065 11.6587 158.948 11.8223ZM150.687 15.172C150.61 15.2384 150.532 15.302 150.454 15.3657L150.381 15.3816L150.687 15.172ZM149.67 15.87C149.795 15.7978 149.906 15.7078 150.025 15.6244C150.032 15.6444 150.043 15.6632 150.057 15.6799C149.968 15.7313 149.893 15.8004 149.793 15.8654L149.67 15.87ZM150.373 15.8041C150.454 15.7575 150.516 15.6849 150.585 15.626C153.429 15.0934 155.957 13.8337 158.459 12.4263C158.329 12.5672 158.192 12.7007 158.048 12.8261C155.957 14.5845 153.126 15.5053 150.37 15.8057L150.373 15.8041ZM159.461 10.9971C158.087 11.1767 156.741 11.5325 155.457 12.0557C156.921 11.1437 158.398 10.2611 159.901 9.40854C159.88 9.96734 159.726 10.5135 159.453 11.0019L159.461 10.9971ZM159.871 9.1003C157.415 10.4848 155.018 11.9576 152.663 13.5025C152.721 13.4688 152.764 13.4145 152.814 13.3669C154.764 11.5497 156.081 9.24001 158.303 7.7062C158.432 7.724 158.56 7.75414 158.685 7.79625C158.981 7.88719 159.248 8.057 159.455 8.28751C159.663 8.51802 159.804 8.80059 159.863 9.10512L159.871 9.1003ZM157.858 7.67452C156.303 8.83458 155.212 10.341 153.932 11.79C153.641 12.1207 153.337 12.4292 153.024 12.7354C153.838 11.4484 154.518 10.0504 155.217 8.73735C155.949 8.18877 156.93 7.69245 157.85 7.67934L157.858 7.67452ZM152.769 11.6256C153.312 10.8162 153.912 10.0461 154.564 9.32126L154.621 9.26608C153.896 10.7727 153.053 12.2199 152.1 13.5943C151.313 14.2683 150.486 14.895 149.625 15.4709C150.766 14.2717 151.814 12.9878 152.761 11.6305L152.769 11.6256Z" fill="#C3937C"/>
<path d="M153.926 32.7643C155.504 31.0731 154.964 28.3013 153.872 26.5322C151.616 22.8691 146.934 21.816 143.258 20.1817C142.504 19.3954 141.692 18.6668 140.828 18.002C140.328 17.6178 139.625 18.3267 140.125 18.711C140.984 19.3706 141.79 20.0954 142.537 20.8789C142.558 20.9036 142.581 20.9262 142.606 20.9465C143.892 22.3157 145.009 23.8343 145.933 25.4699C147.086 27.4665 147.887 29.74 149.346 31.5413C150.516 33.0099 152.299 34.5058 153.926 32.7643ZM150.714 31.8567C149.744 29.4068 148.081 27.3468 146.848 25.0264C146.839 25.0098 146.834 25.0015 146.826 24.9876L146.818 24.9737C146.711 24.788 146.605 24.6049 146.498 24.4191C148.618 26.8073 150.545 29.3034 151.586 32.3589C151.268 32.2439 150.973 32.0739 150.714 31.8567ZM145.557 23.0025C145.294 22.6224 145.019 22.256 144.734 21.8915C144.843 21.9954 144.946 22.0982 145.056 22.1977C145.058 22.2186 145.064 22.2388 145.075 22.257C145.085 22.2752 145.1 22.2909 145.117 22.3031L145.359 22.4662C146.627 23.583 148.006 24.5466 149.211 25.7289C151.056 27.5431 152.264 29.9049 152.654 32.463C152.406 32.5265 152.146 32.5296 151.896 32.472C150.676 28.747 148.175 25.8353 145.549 22.9886L145.557 23.0025ZM147.157 22.8444C149.571 25.2405 152.312 26.893 153.88 29.8919C153.875 30.153 153.852 30.4134 153.811 30.6713C152.101 26.9705 148.884 24.5317 145.541 22.2427L145.403 22.119C145.989 22.3502 146.572 22.583 147.149 22.8306L147.157 22.8444ZM153.718 31.1391C153.616 31.6238 153.332 32.0518 152.926 32.3359C152.598 30.2269 151.727 28.2404 150.398 26.5708C150.034 26.1336 149.642 25.7203 149.224 25.3334C151.091 26.9432 152.704 28.7595 153.71 31.1253L153.718 31.1391ZM153.785 28.8226L153.809 28.9604C152.276 26.6441 149.991 25.1085 147.909 23.1717C148.873 23.6034 149.794 24.1237 150.66 24.726C152.084 25.7156 153.379 27.0532 153.777 28.8087L153.785 28.8226ZM147.987 27.4932C148.819 28.7261 149.564 30.0159 150.216 31.3532C149.318 30.3444 148.596 28.8497 147.979 27.4793L147.987 27.4932Z" fill="#C3937C"/>
</svg>
