<svg width="34" height="33" viewBox="0 0 34 33" fill="none" xmlns="http://www.w3.org/2000/svg">
<path fill-rule="evenodd" clip-rule="evenodd" d="M17.3437 2.75C23.5986 2.75 28.6875 7.87737 28.6875 14.1804C28.6875 21.9285 19.8105 29.5625 17.3437 29.5625C14.877 29.5625 6 21.9285 6 14.1804C6 7.87737 11.0889 2.75 17.3437 2.75ZM17.3437 4.8125C12.226 4.8125 8.0625 9.01587 8.0625 14.1804C8.0625 20.7515 15.7955 27.1535 17.3437 27.4945C18.892 27.1521 26.625 20.7501 26.625 14.1804C26.625 9.01587 22.4615 4.8125 17.3437 4.8125ZM17.3451 9.625C19.8091 9.625 21.8139 11.6298 21.8139 14.0951C21.8139 16.5591 19.8091 18.5625 17.3451 18.5625C14.8811 18.5625 12.8764 16.5591 12.8764 14.0951C12.8764 11.6298 14.8811 9.625 17.3451 9.625ZM17.3451 11.6875C16.0182 11.6875 14.9389 12.7669 14.9389 14.0951C14.9389 15.422 16.0182 16.5 17.3451 16.5C18.672 16.5 19.7514 15.422 19.7514 14.0951C19.7514 12.7669 18.672 11.6875 17.3451 11.6875Z" fill="rgba(61, 38, 27, 1)"/>
</svg>
